<svg version="1.1" xmlns="http://www.w3.org/2000/svg" viewBox="0 0 1007.9075317382812 405.74339294433594" width="2015.8150634765625" height="811.4867858886719">
  <!-- svg-source:excalidraw -->
  
  <defs>
    <style class="style-fonts">
      @font-face {
        font-family: "Virgil";
        src: url("https://excalidraw.com/Virgil.woff2");
      }
      @font-face {
        font-family: "Cascadia";
        src: url("https://excalidraw.com/Cascadia.woff2");
      }
    </style>
  </defs>
  <g stroke-linecap="round" transform="translate(11.1602783203125 230.3492889404297) rotate(0 80.26815795898438 47.483489990234375)"><path d="M23.74 0 M23.74 0 C60.71 1.87, 98.3 1.74, 136.79 0 M23.74 0 C65.81 -0.96, 108.48 -0.23, 136.79 0 M136.79 0 C154.03 1.34, 159.73 8.95, 160.54 23.74 M136.79 0 C151.75 2.16, 159.31 8.69, 160.54 23.74 M160.54 23.74 C162.3 36.73, 160.06 53.53, 160.54 71.23 M160.54 23.74 C160.03 40.39, 159.97 55.62, 160.54 71.23 M160.54 71.23 C158.89 86.99, 153.01 94.41, 136.79 94.97 M160.54 71.23 C159.71 87.75, 153.22 93.51, 136.79 94.97 M136.79 94.97 C109.87 93.09, 86.3 92.83, 23.74 94.97 M136.79 94.97 C94.33 96, 50.17 95.18, 23.74 94.97 M23.74 94.97 C6.4 95.8, -0.87 86.67, 0 71.23 M23.74 94.97 C7.54 94.58, -0.98 87.4, 0 71.23 M0 71.23 C-0.28 58.97, 0.1 45.28, 0 23.74 M0 71.23 C-0.22 59.55, 0.74 49.45, 0 23.74 M0 23.74 C1.88 9.19, 9.46 0.6, 23.74 0 M0 23.74 C-1.82 6.82, 8.52 -0.52, 23.74 0" stroke="#000000" stroke-width="1" fill="none"></path></g><g transform="translate(44.428436279296875 254.83277893066406) rotate(0 47 23)"><text x="47" y="32" font-family="Virgil, Segoe UI Emoji" font-size="36px" fill="#000000" text-anchor="middle" style="white-space: pre;" direction="ltr">client</text></g><g stroke-linecap="round" transform="translate(353.00201416015625 156.70069885253906) rotate(0 80.26815795898438 47.483489990234375)"><path d="M23.74 0 M23.74 0 C66.64 2.07, 106.39 -0.35, 136.79 0 M23.74 0 C62.53 -0.63, 100.39 -0.6, 136.79 0 M136.79 0 C152.85 1.3, 161.72 6.69, 160.54 23.74 M136.79 0 C154.79 2.1, 160.49 8.03, 160.54 23.74 M160.54 23.74 C162.04 34.15, 162.25 45.02, 160.54 71.23 M160.54 23.74 C160.59 35.61, 160.35 46.75, 160.54 71.23 M160.54 71.23 C161.6 86.27, 153.7 96.05, 136.79 94.97 M160.54 71.23 C161.75 86.7, 151.78 97.21, 136.79 94.97 M136.79 94.97 C113.02 93.84, 85.98 95.43, 23.74 94.97 M136.79 94.97 C111.37 95.24, 84.09 96.46, 23.74 94.97 M23.74 94.97 C7.43 94.8, 0.9 87.84, 0 71.23 M23.74 94.97 C7.42 93.26, -2.24 85.39, 0 71.23 M0 71.23 C1.52 57.67, -1.45 41.69, 0 23.74 M0 71.23 C-1.02 52.98, -0.26 34.69, 0 23.74 M0 23.74 C-0.79 7.73, 6.62 0.78, 23.74 0 M0 23.74 C-0.97 9.24, 8.91 0.71, 23.74 0" stroke="#000000" stroke-width="1" fill="none"></path></g><g transform="translate(377.7701721191406 181.18418884277344) rotate(0 55.5 23)"><text x="55.5" y="32" font-family="Virgil, Segoe UI Emoji" font-size="36px" fill="#000000" text-anchor="middle" style="white-space: pre;" direction="ltr">server</text></g><g stroke-linecap="round" transform="translate(10 83.55638122558594) rotate(0 80.26815795898438 47.483489990234375)"><path d="M23.74 0 M23.74 0 C59.6 -0.11, 96.19 0.33, 136.79 0 M23.74 0 C53.65 0.28, 85.06 -0.22, 136.79 0 M136.79 0 C153.54 0.75, 162.1 8.16, 160.54 23.74 M136.79 0 C153.83 0.74, 161.35 9.98, 160.54 23.74 M160.54 23.74 C158.95 39.97, 161.89 51.07, 160.54 71.23 M160.54 23.74 C159.69 42.76, 160.39 60.01, 160.54 71.23 M160.54 71.23 C161.11 87.69, 151.56 93.52, 136.79 94.97 M160.54 71.23 C158.38 84.92, 151.22 96.75, 136.79 94.97 M136.79 94.97 C92.61 92.43, 48.51 92.68, 23.74 94.97 M136.79 94.97 C109.26 94.91, 79.81 96.72, 23.74 94.97 M23.74 94.97 C8.37 93.67, 1.6 88.06, 0 71.23 M23.74 94.97 C6.85 95.88, 0.3 84.79, 0 71.23 M0 71.23 C-0.84 52.99, -1.05 37.09, 0 23.74 M0 71.23 C-0.45 60.05, 0.23 50.87, 0 23.74 M0 23.74 C-1.06 6.19, 7.6 -1.94, 23.74 0 M0 23.74 C1.84 7.1, 8.18 1.61, 23.74 0" stroke="#000000" stroke-width="1" fill="none"></path></g><g transform="translate(43.268157958984375 108.03987121582031) rotate(0 47 23)"><text x="47" y="32" font-family="Virgil, Segoe UI Emoji" font-size="36px" fill="#000000" text-anchor="middle" style="white-space: pre;" direction="ltr">client</text></g><g stroke-linecap="round"><g transform="translate(169.80523681640625 114.46717834472656) rotate(0 90.8311542320717 37.76065860025751)"><path d="M-0.75 0.9 C29.19 13.56, 149.73 62.73, 180.27 75.2 M1.06 0.32 C31.3 12.69, 152.2 61.06, 182.41 73.33" stroke="#000000" stroke-width="1" fill="none"></path></g><g transform="translate(169.80523681640625 114.46717834472656) rotate(0 90.8311542320717 37.76065860025751)"><path d="M153.93 70.51 C163.82 74.77, 175.3 74.85, 184.06 71.75 M152.63 71.93 C160.12 71.98, 168.44 73.96, 182.07 73.04" stroke="#000000" stroke-width="1" fill="none"></path></g><g transform="translate(169.80523681640625 114.46717834472656) rotate(0 90.8311542320717 37.76065860025751)"><path d="M161.59 51.48 C168.66 62.4, 177.43 69.2, 184.06 71.75 M160.3 52.9 C165.74 58.14, 171.95 65.36, 182.07 73.04" stroke="#000000" stroke-width="1" fill="none"></path></g></g><mask></mask><g stroke-linecap="round"><g transform="translate(351.94000244140625 200.05194336737324) rotate(0 -93.0183580845129 -34.91584311296607)"><path d="M-0.06 0.35 C-30.73 -11.53, -153.93 -58.42, -184.88 -70.18 M-1.55 -0.52 C-32.33 -11.7, -155.65 -57.34, -185.98 -68.75" stroke="#000000" stroke-width="1" fill="none"></path></g><g transform="translate(351.94000244140625 200.05194336737324) rotate(0 -93.0183580845129 -34.91584311296607)"><path d="M-155.4 -68.99 C-163.25 -70.56, -170.19 -68.69, -187.16 -66.86 M-156.52 -69.38 C-162.23 -69.18, -168.8 -69.34, -185.46 -68.76" stroke="#000000" stroke-width="1" fill="none"></path></g><g transform="translate(351.94000244140625 200.05194336737324) rotate(0 -93.0183580845129 -34.91584311296607)"><path d="M-162.57 -49.76 C-168.94 -55.76, -174.23 -58.32, -187.16 -66.86 M-163.69 -50.15 C-167.76 -53.99, -172.83 -58.17, -185.46 -68.76" stroke="#000000" stroke-width="1" fill="none"></path></g></g><mask></mask><g stroke-linecap="round"><g transform="translate(174.00140380859375 266.8392791748047) rotate(0 90.03726206310091 -29.269419563310223)"><path d="M-0.73 0.6 C29.51 -8.79, 150.79 -47.56, 180.81 -57.35 M1.08 -0.13 C31.32 -9.79, 150.88 -49.68, 180.44 -59.14" stroke="#000000" stroke-width="1" fill="none"></path></g><g transform="translate(174.00140380859375 266.8392791748047) rotate(0 90.03726206310091 -29.269419563310223)"><path d="M157.85 -38.77 C163.88 -45.61, 168.39 -51.48, 181.11 -59.27 M156.18 -40.28 C163.07 -45.43, 169.36 -50.33, 179.66 -59.54" stroke="#000000" stroke-width="1" fill="none"></path></g><g transform="translate(174.00140380859375 266.8392791748047) rotate(0 90.03726206310091 -29.269419563310223)"><path d="M151.46 -58.27 C158.92 -60.24, 165.01 -61.28, 181.11 -59.27 M149.79 -59.78 C158.25 -60.06, 166.14 -60.09, 179.66 -59.54" stroke="#000000" stroke-width="1" fill="none"></path></g></g><mask></mask><g stroke-linecap="round"><g transform="translate(353.95794677734375 225.1946258544922) rotate(0 -92.46151060912757 34.012420631982394)"><path d="M0.05 -0.33 C-30.66 11.19, -153.22 57.88, -183.98 69.57 M-1.38 -1.55 C-32.29 9.6, -154.27 56.31, -184.98 67.91" stroke="#000000" stroke-width="1" fill="none"></path></g><g transform="translate(353.95794677734375 225.1946258544922) rotate(0 -92.46151060912757 34.012420631982394)"><path d="M-162.82 48.15 C-168.16 53.66, -175.2 62.23, -186.1 67.48 M-161.39 49.02 C-169.09 54.77, -176.08 59.67, -183.99 68.86" stroke="#000000" stroke-width="1" fill="none"></path></g><g transform="translate(353.95794677734375 225.1946258544922) rotate(0 -92.46151060912757 34.012420631982394)"><path d="M-155.53 67.33 C-163.33 66.58, -172.75 68.88, -186.1 67.48 M-154.1 68.21 C-164.01 68.08, -173.21 67.18, -183.99 68.86" stroke="#000000" stroke-width="1" fill="none"></path></g></g><mask></mask><g stroke-linecap="round" transform="translate(696.0296325683594 56.13893127441406) rotate(0 80.26815795898438 47.483489990234375)"><path d="M23.74 0 M23.74 0 C47.48 0.55, 70.36 1.72, 136.79 0 M23.74 0 C62.43 0.7, 99.33 -0.01, 136.79 0 M136.79 0 C154.24 0.73, 161.14 7.23, 160.54 23.74 M136.79 0 C154.63 0.63, 161.28 6.74, 160.54 23.74 M160.54 23.74 C160.55 35.09, 161.58 49.23, 160.54 71.23 M160.54 23.74 C160.22 38.23, 160.33 52.68, 160.54 71.23 M160.54 71.23 C159.21 88.49, 154.12 95.63, 136.79 94.97 M160.54 71.23 C160.84 88.32, 153.53 92.67, 136.79 94.97 M136.79 94.97 C100.81 94.26, 69.17 95.44, 23.74 94.97 M136.79 94.97 C93.35 95.82, 48.79 95.46, 23.74 94.97 M23.74 94.97 C6.3 96.41, 0.61 87.47, 0 71.23 M23.74 94.97 C8.94 94.73, 0.95 85.87, 0 71.23 M0 71.23 C2.03 57.58, -1.48 41.54, 0 23.74 M0 71.23 C0.22 55.56, -0.47 41.81, 0 23.74 M0 23.74 C-0.3 9.23, 8.34 1.24, 23.74 0 M0 23.74 C0.94 9.36, 10.03 -1.99, 23.74 0" stroke="#000000" stroke-width="1" fill="none"></path></g><g stroke-linecap="round" transform="translate(591.8873596191406 271.67689514160156) rotate(0 80.26815795898438 47.483489990234375)"><path d="M23.74 0 M23.74 0 C50.94 -0.78, 81.79 0.57, 136.79 0 M23.74 0 C55.66 -0.62, 86.51 -0.04, 136.79 0 M136.79 0 C153.17 0.64, 159.52 7.24, 160.54 23.74 M136.79 0 C152.03 0.37, 160.69 6.42, 160.54 23.74 M160.54 23.74 C161.76 40.47, 159.39 58.7, 160.54 71.23 M160.54 23.74 C161.69 36.44, 161.3 47.76, 160.54 71.23 M160.54 71.23 C161.64 87.85, 150.62 94.99, 136.79 94.97 M160.54 71.23 C159.62 84.86, 150.42 95.4, 136.79 94.97 M136.79 94.97 C99.75 97.25, 63.6 96.14, 23.74 94.97 M136.79 94.97 C113.03 94.36, 88.03 94.5, 23.74 94.97 M23.74 94.97 C7.71 95.79, -1.03 86.89, 0 71.23 M23.74 94.97 C5.84 96.38, 1.84 87.31, 0 71.23 M0 71.23 C-1.54 62.98, -0.05 50.32, 0 23.74 M0 71.23 C0.46 61.7, 0.42 52.16, 0 23.74 M0 23.74 C1.26 9.76, 6.18 -1.05, 23.74 0 M0 23.74 C0.49 5.82, 7.95 -2.1, 23.74 0" stroke="#000000" stroke-width="1" fill="none"></path></g><g stroke-linecap="round"><g transform="translate(515.0166015625 183.8666534423828) rotate(0 91.85961401407604 -35.16001463253982)"><path d="M1 0.43 C31.61 -10.98, 153.12 -57.18, 183.65 -68.92 M0.07 -0.38 C30.55 -12.11, 152.25 -59.32, 182.88 -70.75" stroke="#000000" stroke-width="1" fill="none"></path></g><g transform="translate(515.0166015625 183.8666534423828) rotate(0 91.85961401407604 -35.16001463253982)"><path d="M160.93 -50.55 C167.98 -55.73, 172.97 -64.86, 184.12 -68.86 M159.51 -51.67 C168.09 -58.63, 175.7 -63.8, 182.1 -71.41" stroke="#000000" stroke-width="1" fill="none"></path></g><g transform="translate(515.0166015625 183.8666534423828) rotate(0 91.85961401407604 -35.16001463253982)"><path d="M153.61 -69.72 C162.78 -69.22, 169.96 -72.61, 184.12 -68.86 M152.19 -70.85 C163.12 -71.4, 173.2 -70.12, 182.1 -71.41" stroke="#000000" stroke-width="1" fill="none"></path></g></g><mask></mask><g stroke-linecap="round"><g transform="translate(755.6464225459963 152.7334747314453) rotate(0 -27.96576159693899 60.230037762522706)"><path d="M0.38 0.49 C-9.13 20.18, -46.31 99.57, -55.83 119.18 M-0.89 -0.3 C-10.57 20.13, -46.86 100.87, -56.31 120.76" stroke="#000000" stroke-width="1" fill="none"></path></g><g transform="translate(755.6464225459963 152.7334747314453) rotate(0 -27.96576159693899 60.230037762522706)"><path d="M-53.02 92.35 C-54.44 102.71, -57.09 114.61, -54.5 119.73 M-54.06 90.44 C-54.81 102.29, -54.83 112.62, -57.23 121.18" stroke="#000000" stroke-width="1" fill="none"></path></g><g transform="translate(755.6464225459963 152.7334747314453) rotate(0 -27.96576159693899 60.230037762522706)"><path d="M-34.38 100.94 C-43.3 107.93, -53.38 116.41, -54.5 119.73 M-35.42 99.03 C-43.06 107.86, -50.02 115, -57.23 121.18" stroke="#000000" stroke-width="1" fill="none"></path></g></g><mask></mask><g stroke-linecap="round"><g transform="translate(592.6298828125 329.86985778808594) rotate(0 -39.673983394782965 -44.20002726932057)"><path d="M-0.28 -1.17 C-13.74 -16.03, -66.61 -74.44, -79.89 -89.23 M1.78 0.83 C-11.96 -13.82, -67.32 -72.72, -81.13 -87.68" stroke="#000000" stroke-width="1" fill="none"></path></g><g transform="translate(592.6298828125 329.86985778808594) rotate(0 -39.673983394782965 -44.20002726932057)"><path d="M-56.35 -74.96 C-64.32 -80.21, -75.43 -83.73, -82.26 -88.04 M-53.75 -74.9 C-62.53 -78.19, -72.26 -82.56, -82.1 -87.88" stroke="#000000" stroke-width="1" fill="none"></path></g><g transform="translate(592.6298828125 329.86985778808594) rotate(0 -39.673983394782965 -44.20002726932057)"><path d="M-71.36 -60.96 C-73.73 -71.39, -79.25 -80.13, -82.26 -88.04 M-68.76 -60.91 C-72.78 -68.62, -77.69 -77.48, -82.1 -87.88" stroke="#000000" stroke-width="1" fill="none"></path></g></g><mask></mask><g stroke-linecap="round" transform="translate(316.2373046875 10) rotate(0 340.8351135253906 192.87169647216797)"><path d="M449.34 10.7 C475.01 12.15, 500.35 21.19, 522.79 28.99 C545.23 36.79, 565.76 46.8, 583.97 57.49 C602.19 68.19, 618.4 80.6, 632.06 93.15 C645.72 105.71, 657.71 118.87, 665.94 132.82 C674.17 146.77, 679.52 162.04, 681.43 176.87 C683.33 191.69, 681.48 206.96, 677.35 221.76 C673.23 236.55, 666.48 251.78, 656.67 265.64 C646.86 279.51, 633.76 292.9, 618.47 304.97 C603.18 317.04, 584.47 328.27, 564.94 338.06 C545.41 347.85, 524.35 356.93, 501.3 363.71 C478.26 370.49, 452.23 374.93, 426.67 378.73 C401.1 382.54, 373.94 386.23, 347.9 386.54 C321.86 386.85, 296.07 383.87, 270.42 380.62 C244.78 377.36, 217.82 373.15, 194.03 367.02 C170.23 360.9, 148.12 353.08, 127.67 343.86 C107.21 334.64, 87.45 323.52, 71.28 311.7 C55.1 299.88, 41.31 286.51, 30.61 272.94 C19.92 259.37, 12.08 244.76, 7.11 230.25 C2.14 215.74, -0.06 200.59, 0.8 185.88 C1.67 171.17, 5.47 156.31, 12.29 142.02 C19.12 127.72, 29.3 113.24, 41.75 100.12 C54.2 87, 69.51 74.38, 86.97 63.28 C104.43 52.19, 124.7 42.04, 146.52 33.55 C168.34 25.05, 193.19 17.61, 217.88 12.29 C242.57 6.97, 268.84 3.54, 294.66 1.61 C320.48 -0.32, 345.51 -0.87, 372.81 0.71 C400.12 2.28, 443.21 8.14, 458.48 11.06 C473.76 13.99, 466.3 15.18, 464.46 18.25 M200.78 15.69 C221.08 7.21, 251.35 5.61, 277.13 2.8 C302.91 0, 329.07 -2.08, 355.45 -1.13 C381.82 -0.17, 410.31 4.36, 435.39 8.52 C460.47 12.68, 483.45 16.93, 505.95 23.83 C528.45 30.74, 551.11 39.9, 570.39 49.97 C589.67 60.03, 607 71.94, 621.63 84.22 C636.27 96.5, 648.88 109.65, 658.19 123.66 C667.5 137.68, 673.91 153.29, 677.5 168.29 C681.08 183.29, 681.96 198.86, 679.71 213.66 C677.46 228.47, 672.41 243.32, 663.98 257.11 C655.56 270.9, 643.33 284.27, 629.16 296.4 C614.99 308.53, 597.73 319.58, 578.95 329.88 C560.18 340.18, 539.09 350.1, 516.51 358.18 C493.94 366.26, 468.49 373.81, 443.5 378.36 C418.52 382.91, 392.61 384.92, 366.63 385.5 C340.64 386.08, 313.77 384.03, 287.6 381.83 C261.44 379.63, 233.85 377.67, 209.66 372.29 C185.48 366.92, 163.81 358.37, 142.5 349.6 C121.19 340.84, 99.18 331.17, 81.78 319.72 C64.38 308.26, 49.98 294.15, 38.12 280.85 C26.26 267.56, 16.82 254.32, 10.63 239.94 C4.44 225.55, 1.42 209.15, 0.99 194.54 C0.56 179.94, 2.72 166.42, 8.07 152.31 C13.42 138.2, 21.55 123.22, 33.11 109.89 C44.66 96.55, 60.82 83.8, 77.41 72.31 C94.01 60.82, 111.79 50.01, 132.68 40.95 C153.58 31.89, 191 21.42, 202.8 17.95 C214.6 14.49, 201.25 17.64, 203.5 20.15" stroke="#000000" stroke-width="1" fill="none"></path></g></svg>