<svg version="1.1" xmlns="http://www.w3.org/2000/svg" viewBox="0 0 877.3795318603516 486.8352843052562" width="1754.7590637207031" height="973.6705686105124">
  <!-- svg-source:excalidraw -->
  
  <defs>
    <style class="style-fonts">
      @font-face {
        font-family: "Virgil";
        src: url("https://excalidraw.com/Virgil.woff2");
      }
      @font-face {
        font-family: "Cascadia";
        src: url("https://excalidraw.com/Cascadia.woff2");
      }
    </style>
  </defs>
  <g stroke-linecap="round" transform="translate(10 180.54330444335938) rotate(0 107.29240417480469 66.18377685546875)"><path d="M32 0 M32 0 C80.72 1.47, 131.2 2.83, 182.58 0 M32 0 C85.2 -0.72, 138.96 -1, 182.58 0 M182.58 0 C202.05 0.99, 213.61 11.19, 214.58 32 M182.58 0 C202.04 2.23, 212.4 10.22, 214.58 32 M214.58 32 C213.54 49.43, 216.91 62.66, 214.58 100.37 M214.58 32 C214.19 52.83, 214.27 72.45, 214.58 100.37 M214.58 100.37 C213.61 123.57, 202.24 130.55, 182.58 132.37 M214.58 100.37 C215.95 123.73, 204.97 130.31, 182.58 132.37 M182.58 132.37 C124.97 134.68, 68.76 132.24, 32 132.37 M182.58 132.37 C150.51 133.56, 118.37 134.33, 32 132.37 M32 132.37 C12.52 130.87, 0.43 123.41, 0 100.37 M32 132.37 C10.52 133.37, -1.95 119.86, 0 100.37 M0 100.37 C-0.33 82.78, -0.98 67.34, 0 32 M0 100.37 C-1.35 75.08, -0.24 49.82, 0 32 M0 32 C0.54 9.36, 9.22 -0.59, 32 0 M0 32 C0.89 9.86, 12.45 1.27, 32 0" stroke="#000000" stroke-width="1" fill="none"></path></g><g transform="translate(104.29240417480469 223.72708129882812) rotate(0 13 23)"><text x="13" y="32" font-family="Virgil, Segoe UI Emoji" font-size="36px" fill="#000000" text-anchor="middle" style="white-space: pre;" direction="ltr">A</text></g><g stroke-linecap="round" transform="translate(357.01365661621094 179.77833557128906) rotate(0 107.29240417480469 66.18377685546875)"><path d="M32 0 M32 0 C79.47 1.55, 127.09 0.87, 182.58 0 M32 0 C71.28 0.86, 110.38 1.96, 182.58 0 M182.58 0 C202.33 0.38, 216.09 10.15, 214.58 32 M182.58 0 C203.25 1.06, 216.51 8.47, 214.58 32 M214.58 32 C213.72 50.09, 213.01 62.57, 214.58 100.37 M214.58 32 C214.95 53.57, 213.68 74, 214.58 100.37 M214.58 100.37 C213.63 121.21, 203.35 131.3, 182.58 132.37 M214.58 100.37 C213.51 122.68, 205.27 132.22, 182.58 132.37 M182.58 132.37 C146.6 135.41, 113.13 133.28, 32 132.37 M182.58 132.37 C126.72 132.6, 70.13 133.11, 32 132.37 M32 132.37 C11.67 133.69, -0.2 123.05, 0 100.37 M32 132.37 C11.9 130.3, -0.73 120.64, 0 100.37 M0 100.37 C0.12 75.37, 1 50.5, 0 32 M0 100.37 C-0.31 85, 0.85 68.43, 0 32 M0 32 C1.76 8.76, 9.76 1.65, 32 0 M0 32 C0.19 8.73, 8.79 1.53, 32 0" stroke="#000000" stroke-width="1" fill="none"></path></g><g transform="translate(450.3060607910156 222.9621124267578) rotate(0 14 23)"><text x="14" y="32" font-family="Virgil, Segoe UI Emoji" font-size="36px" fill="#000000" text-anchor="middle" style="white-space: pre;" direction="ltr">B</text></g><g stroke-linecap="round" transform="translate(652.7947235107422 176.4866943359375) rotate(0 107.29240417480469 66.18377685546875)"><path d="M32 0 M32 0 C84.59 -0.97, 139.27 -2.74, 182.58 0 M32 0 C91.25 1.89, 148.14 1.02, 182.58 0 M182.58 0 C205.53 -1.73, 213.55 9.22, 214.58 32 M182.58 0 C202.34 0.87, 215.59 11.42, 214.58 32 M214.58 32 C213.65 46.47, 214.27 62.38, 214.58 100.37 M214.58 32 C213.62 58, 214.33 82.58, 214.58 100.37 M214.58 100.37 C214.24 122.96, 203.06 133.24, 182.58 132.37 M214.58 100.37 C216.82 119.83, 203.13 134.06, 182.58 132.37 M182.58 132.37 C138.23 131.95, 94.18 132.5, 32 132.37 M182.58 132.37 C141.4 130.62, 100.82 131.07, 32 132.37 M32 132.37 C9.42 130.68, 0.68 120.19, 0 100.37 M32 132.37 C10.09 133.41, -1.14 122.45, 0 100.37 M0 100.37 C0.76 81.93, 2.09 64.94, 0 32 M0 100.37 C-0.58 83.78, 1.15 67.61, 0 32 M0 32 C-0.23 10.37, 9.38 1.04, 32 0 M0 32 C-0.11 12.04, 9.78 0.04, 32 0" stroke="#000000" stroke-width="1" fill="none"></path></g><g transform="translate(745.0871276855469 219.67047119140625) rotate(0 15 23)"><text x="15" y="32" font-family="Virgil, Segoe UI Emoji" font-size="36px" fill="#000000" text-anchor="middle" style="white-space: pre;" direction="ltr">D</text></g><g stroke-linecap="round"><g transform="translate(224.06503295898443 250.43181995477357) rotate(0 63.80560571898704 0.2699639817767263)"><path d="M0.8 -0.96 C22.19 -0.93, 106.78 -0.25, 127.84 0.19 M-0.23 1.15 C21.02 1.33, 105.15 1.65, 126.8 1.42" stroke="#000000" stroke-width="1" fill="none"></path></g><g transform="translate(224.06503295898443 250.43181995477357) rotate(0 63.80560571898704 0.2699639817767263)"><path d="M97.03 11.43 C105.02 7.44, 114.86 7.47, 125.99 1.54 M97.82 11.64 C105.5 10.1, 110.36 7.14, 125.91 0.84" stroke="#000000" stroke-width="1" fill="none"></path></g><g transform="translate(224.06503295898443 250.43181995477357) rotate(0 63.80560571898704 0.2699639817767263)"><path d="M96.98 -9.09 C104.99 -7.71, 114.84 -2.32, 125.99 1.54 M97.78 -8.89 C105.49 -6.11, 110.37 -4.75, 125.91 0.84" stroke="#000000" stroke-width="1" fill="none"></path></g></g><mask></mask><g stroke-linecap="round"><g transform="translate(572.5984649658203 251.59644536666138) rotate(0 42.28650544993582 -1.2994242842846404)"><path d="M-0.52 -0.49 C13.71 -1, 70.61 -2, 85.09 -2.11 M1.41 -1.79 C15.47 -2.28, 69.86 -1.48, 83.97 -1.16" stroke="#000000" stroke-width="1" fill="none"></path></g><g transform="translate(572.5984649658203 251.59644536666138) rotate(0 42.28650544993582 -1.2994242842846404)"><path d="M54.8 8.07 C61.55 7.59, 71.09 1.46, 82.61 -0.65 M55.72 8.5 C61.69 6.34, 68.43 5.3, 84.67 -1.65" stroke="#000000" stroke-width="1" fill="none"></path></g><g transform="translate(572.5984649658203 251.59644536666138) rotate(0 42.28650544993582 -1.2994242842846404)"><path d="M55.15 -12.45 C61.96 -7.22, 71.41 -7.64, 82.61 -0.65 M56.08 -12.02 C61.91 -9.65, 68.57 -6.16, 84.67 -1.65" stroke="#000000" stroke-width="1" fill="none"></path></g></g><mask></mask><g stroke-linecap="round"><g transform="translate(754.7265319824219 307.76727294921875) rotate(0 -288.99658371694386 84.38414192976634)"><path d="M0.73 0.49 C-44.94 28.75, -176.81 168.06, -273.38 169.06 C-369.96 170.07, -527.85 33.58, -578.73 6.53 M-0.34 -0.3 C-46.18 27.7, -178.08 166.14, -274.06 167.51 C-370.05 168.88, -525.46 34.5, -576.24 7.92" stroke="#000000" stroke-width="1" fill="none"></path></g><g transform="translate(754.7265319824219 307.76727294921875) rotate(0 -288.99658371694386 84.38414192976634)"><path d="M-546.28 15.9 C-555.57 11.41, -567.46 9.02, -575.62 7.54 M-547.3 15.36 C-556.17 13.4, -564.18 11.11, -575.42 7.98" stroke="#000000" stroke-width="1" fill="none"></path></g><g transform="translate(754.7265319824219 307.76727294921875) rotate(0 -288.99658371694386 84.38414192976634)"><path d="M-557.69 32.97 C-562.86 22.36, -570.71 13.94, -575.62 7.54 M-558.7 32.42 C-564.21 25.36, -568.81 17.97, -575.42 7.98" stroke="#000000" stroke-width="1" fill="none"></path></g></g><mask></mask><g stroke-linecap="round" transform="translate(354.1594696044922 10) rotate(0 107.29240417480469 66.18377685546875)"><path d="M32 0 M32 0 C89.7 -1.53, 147.87 -1.61, 182.58 0 M32 0 C89.14 0.05, 146.96 0.23, 182.58 0 M182.58 0 C202.52 -0.43, 213.22 11, 214.58 32 M182.58 0 C201.93 0.55, 214.92 12.13, 214.58 32 M214.58 32 C215.57 54.08, 214.95 75.04, 214.58 100.37 M214.58 32 C214.08 57.01, 214.96 80.38, 214.58 100.37 M214.58 100.37 C216.53 121.02, 203.79 134.27, 182.58 132.37 M214.58 100.37 C216.78 122.08, 206.01 132.15, 182.58 132.37 M182.58 132.37 C146.41 134.45, 110.82 131.73, 32 132.37 M182.58 132.37 C138.1 131.56, 94.54 131.29, 32 132.37 M32 132.37 C10.92 132.34, -1.12 120.8, 0 100.37 M32 132.37 C9.18 131.14, -2.27 121.74, 0 100.37 M0 100.37 C-0.03 81.75, -0.48 64.36, 0 32 M0 100.37 C-0.12 77.01, 0.3 52.31, 0 32 M0 32 C1.9 10.95, 8.98 -1.94, 32 0 M0 32 C0.89 12.51, 10.29 0.34, 32 0" stroke="#000000" stroke-width="1" fill="none"></path></g><g transform="translate(448.9518737792969 53.18377685546875) rotate(0 12.5 23)"><text x="12.5" y="32" font-family="Virgil, Segoe UI Emoji" font-size="36px" fill="#000000" text-anchor="middle" style="white-space: pre;" direction="ltr">C</text></g><g stroke-linecap="round"><g transform="translate(102.34799194335938 179.42141723632812) rotate(0 126.88956913810222 -54.75303740710021)"><path d="M1.05 -0.79 C43.33 -19, 211.42 -90.85, 253.64 -109.13 M0.14 1.42 C42.29 -17.16, 210.51 -92.43, 252.84 -110.92" stroke="#000000" stroke-width="1" fill="none"></path></g><g transform="translate(102.34799194335938 179.42141723632812) rotate(0 126.88956913810222 -54.75303740710021)"><path d="M229.91 -89.67 C238.61 -94.82, 242.74 -102.43, 253.78 -111.81 M231.01 -89.42 C235.11 -93.74, 241.02 -98.03, 252.42 -111.87" stroke="#000000" stroke-width="1" fill="none"></path></g><g transform="translate(102.34799194335938 179.42141723632812) rotate(0 126.88956913810222 -54.75303740710021)"><path d="M221.6 -108.43 C232.77 -108.13, 239.34 -110.21, 253.78 -111.81 M222.7 -108.18 C228.36 -108.73, 235.94 -109.25, 252.42 -111.87" stroke="#000000" stroke-width="1" fill="none"></path></g></g><mask></mask></svg>