<svg version="1.1" xmlns="http://www.w3.org/2000/svg" viewBox="0 0 562.9120788574219 143.89334106445312" width="1125.8241577148438" height="287.78668212890625">
  <!-- svg-source:excalidraw -->
  
  <defs>
    <style class="style-fonts">
      @font-face {
        font-family: "Virgil";
        src: url("https://excalidraw.com/Virgil.woff2");
      }
      @font-face {
        font-family: "Cascadia";
        src: url("https://excalidraw.com/Cascadia.woff2");
      }
    </style>
  </defs>
  <g stroke-linecap="round" transform="translate(10 29.221588134765625) rotate(0 75.42431640625 44.07145690917969)"><path d="M22.04 0 M22.04 0 C61.7 -1.54, 98.59 -0.69, 128.81 0 M22.04 0 C52.56 -0.89, 83.08 -0.95, 128.81 0 M128.81 0 C143.36 1.09, 152.3 7.56, 150.85 22.04 M128.81 0 C142.59 -1.49, 150.58 8.42, 150.85 22.04 M150.85 22.04 C149.73 38.72, 151.16 55.97, 150.85 66.11 M150.85 22.04 C150.18 34.18, 150.54 45.96, 150.85 66.11 M150.85 66.11 C149.9 81.63, 143.74 87.03, 128.81 88.14 M150.85 66.11 C148.57 81.25, 141.88 85.85, 128.81 88.14 M128.81 88.14 C105.15 89.18, 84.78 90.53, 22.04 88.14 M128.81 88.14 C89.31 89.6, 50.43 88.96, 22.04 88.14 M22.04 88.14 C6.04 87.12, -0.98 79.89, 0 66.11 M22.04 88.14 C6.45 86.4, 2.08 82.41, 0 66.11 M0 66.11 C1.49 49.64, 1.37 34.97, 0 22.04 M0 66.11 C-0.35 51.48, 0.59 35.95, 0 22.04 M0 22.04 C-1.57 8.94, 5.41 -0.87, 22.04 0 M0 22.04 C-0.05 6.56, 6.99 1.4, 22.04 0" stroke="#000000" stroke-width="1" fill="none"></path></g><g transform="translate(48.42431640625 60.79304504394531) rotate(0 37 12.5)"><text x="37" y="18" font-family="Virgil, Segoe UI Emoji" font-size="20px" fill="#000000" text-anchor="middle" style="white-space: pre;" direction="ltr">browser</text></g><g stroke-linecap="round" transform="translate(402.0634460449219 32.06782531738281) rotate(0 75.42431640625 44.07145690917969)"><path d="M22.04 0 M22.04 0 C51.69 -0.06, 81.34 -1.97, 128.81 0 M22.04 0 C47.43 0.82, 71.67 0.22, 128.81 0 M128.81 0 C143.25 -1.77, 149.98 7.71, 150.85 22.04 M128.81 0 C145.62 2.01, 150.51 8.17, 150.85 22.04 M150.85 22.04 C149.71 38.98, 151.41 54.26, 150.85 66.11 M150.85 22.04 C149.79 32.29, 150.47 43.09, 150.85 66.11 M150.85 66.11 C149.03 81.19, 143.28 88.22, 128.81 88.14 M150.85 66.11 C153.07 81.18, 143.24 86.21, 128.81 88.14 M128.81 88.14 C102.35 88.32, 75.2 89.42, 22.04 88.14 M128.81 88.14 C93.8 88.22, 59.38 88.51, 22.04 88.14 M22.04 88.14 C9 86.32, -1.7 80.38, 0 66.11 M22.04 88.14 C9.06 89.88, 1.09 81.54, 0 66.11 M0 66.11 C1.81 55.93, 1.73 42.92, 0 22.04 M0 66.11 C-0.57 52.48, 0.27 38.08, 0 22.04 M0 22.04 C-1.86 7.8, 9.27 1.64, 22.04 0 M0 22.04 C-1.4 5.19, 7.63 -1.23, 22.04 0" stroke="#000000" stroke-width="1" fill="none"></path></g><g transform="translate(426.4877624511719 51.1392822265625) rotate(0 51 25)"><text x="51" y="18" font-family="Virgil, Segoe UI Emoji" font-size="20px" fill="#000000" text-anchor="middle" style="white-space: pre;" direction="ltr">server</text><text x="51" y="43" font-family="Virgil, Segoe UI Emoji" font-size="20px" fill="#000000" text-anchor="middle" style="white-space: pre;" direction="ltr">(port :80)</text></g><g stroke-linecap="round"><g transform="translate(160.84530639648438 52.06170654296875) rotate(0 122.62437473526688 -0.8410605892302101)"><path d="M1.05 -0.42 C41.91 -0.64, 204.35 -1.05, 245.11 -1.34 M0.14 -1.68 C40.82 -1.74, 203.21 -0.04, 244.01 0" stroke="#000000" stroke-width="1" fill="none"></path></g><g transform="translate(160.84530639648438 52.06170654296875) rotate(0 122.62437473526688 -0.8410605892302101)"><path d="M215.06 9.59 C223.49 7.18, 230.51 2.67, 244 -1.77 M215.84 9.23 C223.77 6.85, 230.81 3.85, 244.16 0.64" stroke="#000000" stroke-width="1" fill="none"></path></g><g transform="translate(160.84530639648438 52.06170654296875) rotate(0 122.62437473526688 -0.8410605892302101)"><path d="M215.19 -10.93 C223.58 -7.26, 230.56 -5.7, 244 -1.77 M215.97 -11.29 C223.84 -7.89, 230.85 -5.11, 244.16 0.64" stroke="#000000" stroke-width="1" fill="none"></path></g></g><mask></mask><g stroke-linecap="round"><g transform="translate(401.0634460449219 84.99757691579907) rotate(0 -121.35536341518161 -0.6036723639678314)"><path d="M-0.05 -1.15 C-40.34 -1.3, -202.51 -0.38, -242.66 -0.13 M-1.53 0.86 C-41.38 0.27, -200.45 -1.66, -240.41 -2.07" stroke="#000000" stroke-width="1" fill="none"></path></g><g transform="translate(401.0634460449219 84.99757691579907) rotate(0 -121.35536341518161 -0.6036723639678314)"><path d="M-214.02 -13.48 C-217.85 -8.46, -223.49 -8.04, -241.31 -0.39 M-212.34 -12.03 C-223.25 -7.98, -233.01 -4.22, -240.66 -1.28" stroke="#000000" stroke-width="1" fill="none"></path></g><g transform="translate(401.0634460449219 84.99757691579907) rotate(0 -121.35536341518161 -0.6036723639678314)"><path d="M-214.26 7.04 C-218.17 7.43, -223.75 3.2, -241.31 -0.39 M-212.57 8.49 C-223.32 4.83, -232.99 0.88, -240.66 -1.28" stroke="#000000" stroke-width="1" fill="none"></path></g></g><mask></mask><g transform="translate(204.58804321289062 10) rotate(0 71 12.5)"><text x="0" y="18" font-family="Virgil, Segoe UI Emoji" font-size="20px" fill="#000000" text-anchor="start" style="white-space: pre;" direction="ltr">request (URL)</text></g><g transform="translate(187.16769409179688 108.89334106445312) rotate(0 99 12.5)"><text x="0" y="18" font-family="Virgil, Segoe UI Emoji" font-size="20px" fill="#000000" text-anchor="start" style="white-space: pre;" direction="ltr">response (document)</text></g></svg>