<svg version="1.1" xmlns="http://www.w3.org/2000/svg" viewBox="0 0 820.3363329059116 496.7060740337802" width="1640.6726658118232" height="993.4121480675605">
  <!-- svg-source:excalidraw -->
  
  <defs>
    <style>
      @font-face {
        font-family: "Virgil";
        src: url("https://excalidraw.com/Virgil.woff2");
      }
      @font-face {
        font-family: "Cascadia";
        src: url("https://excalidraw.com/Cascadia.woff2");
      }
    </style>
  </defs>
  <rect x="0" y="0" width="820.3363329059116" height="496.7060740337802" fill="#ffffff"></rect><g stroke-linecap="round" transform="translate(185.52065849420262 10) rotate(0 101.48938424330464 35.128871298005706)"><path d="M0.7 1.78 C42.41 -2.87, 85.19 -1.95, 202.72 1.22 M-0.59 0.24 C47.52 0.33, 95.06 0.98, 202.59 0.4 M203 1.68 C203.24 15.25, 204.07 32.28, 204.95 68.96 M202.55 -0.69 C202.44 23.54, 202.6 45.73, 203.56 69.75 M202.28 70.09 C134.61 69.44, 65.47 70.91, -0.94 71.27 M202.58 71.05 C132.68 69.12, 61.67 68.58, 0.24 69.53 M0.09 69.13 C0.12 54.85, 0.53 40.41, 1.25 -1.46 M0.58 69.89 C0.55 48.27, 0.26 27.58, -0.72 -0.57" stroke="#000000" stroke-width="1" fill="none"></path></g><g transform="translate(233.70023106561553 23.38336544297789) rotate(0 46.5 23)"><text x="0" y="32" font-family="Virgil, Segoe UI Emoji" font-size="36px" fill="#000000" text-anchor="start" style="white-space: pre;" direction="ltr">client</text></g><g stroke-linecap="round" transform="translate(108.82206186314193 370.64300589956315) rotate(0 147.5 51.00000000000003)"><path d="M-0.31 -1.24 C92.98 1.64, 183.28 2.09, 294.94 -1.12 M0.22 0.08 C64.7 -1.73, 130.29 -1.37, 294.6 -0.58 M296.23 1.56 C296.92 31.27, 296.02 63.9, 293.04 101.97 M295.59 0.81 C295.67 33.94, 295.82 65.8, 294.08 101.91 M295.09 100.68 C196.33 99.66, 100.2 98.92, -1.33 102.79 M294.48 101.42 C187.59 103.58, 80.86 102.36, 0.4 101.54 M-0.59 101.19 C-2.3 62.63, 1.01 26.25, -0.08 -0.37 M-0.08 101.12 C-1.32 62.85, -1.08 23.8, -0.56 0.4" stroke="#000000" stroke-width="1" fill="none"></path></g><g stroke-linecap="round" transform="translate(536.3465956546625 224.3771800156424) rotate(0 101.5 51)"><path d="M-0.25 -1.72 C47.44 -1.48, 90.78 0.68, 203.05 0.49 M-0.59 0.77 C65.43 -0.23, 130.32 0.98, 202.72 -0.8 M204.67 -1.08 C202.5 30.45, 202.57 61.71, 203.29 101.9 M202 0.19 C203.46 34.01, 202.25 68.62, 202.39 101.1 M201.29 101.22 C124.63 104.21, 44.04 101.52, -0.39 103.16 M202.71 101.55 C143.13 100.91, 80.92 100.92, 0.15 101.13 M-0.93 101.45 C1.51 63.58, -0.89 26.87, -1.24 0.87 M0.88 102.2 C0.59 68.29, 0.68 32, 0.1 -0.11" stroke="#000000" stroke-width="1" fill="none"></path></g><g transform="translate(113.82206186314193 375.6430058995632) rotate(0 142.5 46)"><text x="142.5" y="32" font-family="Virgil, Segoe UI Emoji" font-size="36px" fill="#000000" text-anchor="middle" style="white-space: pre;" direction="ltr">recommendation</text><text x="142.5" y="78" font-family="Virgil, Segoe UI Emoji" font-size="36px" fill="#000000" text-anchor="middle" style="white-space: pre;" direction="ltr">engine</text></g><g transform="translate(541.3465956546625 229.3771800156424) rotate(0 96.5 46)"><text x="96.5" y="32" font-family="Virgil, Segoe UI Emoji" font-size="36px" fill="#000000" text-anchor="middle" style="white-space: pre;" direction="ltr">database</text><text x="96.5" y="78" font-family="Virgil, Segoe UI Emoji" font-size="36px" fill="#000000" text-anchor="middle" style="white-space: pre;" direction="ltr">server</text></g><g stroke-linecap="round" transform="translate(178.9101212695624 190.2920302523993) rotate(0 101.5 51)"><path d="M-0.67 -1.33 C43.6 -0.87, 87.08 1.3, 202.81 1.44 M0.82 -0.64 C75.44 2.12, 151.16 0.86, 203.07 0.76 M202.36 -1.04 C205.05 35.7, 205.52 71.03, 202.59 101.7 M202.57 0.84 C204.1 26.17, 204.55 53.8, 202.21 102.93 M202.75 100.65 C139.07 100.7, 73.39 102.45, -0.87 101.81 M202.68 102.05 C148.09 102.17, 93.06 100.86, 0.16 101.87 M-0.01 101.55 C1.13 82.45, 1.68 61.09, 1.39 0.95 M0.78 101.32 C0.05 65.49, -0.37 27.89, 0.6 0.62" stroke="#000000" stroke-width="1" fill="none"></path></g><g transform="translate(183.9101212695624 195.2920302523993) rotate(0 96.5 46)"><text x="96.5" y="32" font-family="Virgil, Segoe UI Emoji" font-size="36px" fill="#000000" text-anchor="middle" style="white-space: pre;" direction="ltr">user</text><text x="96.5" y="78" font-family="Virgil, Segoe UI Emoji" font-size="36px" fill="#000000" text-anchor="middle" style="white-space: pre;" direction="ltr">server</text></g><g transform="translate(251.48656051737862 94.35645103239364) rotate(0 0.9068965516805179 41.847971044627926)" stroke="none"><path fill="#000000" d="M 1.94,0 Q 1.94,0 1.95,1.66 1.97,3.33 2.05,4.40 2.13,5.46 2.28,7.35 2.43,9.23 2.29,11.54 2.14,13.84 2.03,17.29 1.92,20.74 1.84,24.89 1.76,29.04 1.70,33.30 1.63,37.55 1.59,41.59 1.55,45.63 1.51,49.36 1.48,53.08 1.46,56.60 1.43,60.12 1.42,63.12 1.40,66.13 1.39,68.22 1.39,70.31 1.50,71.69 1.61,73.07 1.79,74.48 1.97,75.88 2.48,77.00 2.98,78.11 3.12,79.58 3.26,81.04 3.36,82.20 3.45,83.36 2.71,84.46 1.96,85.57 0.33,85.82 -1.29,86.08 -2.64,85.37 -3.98,84.66 -4.87,84.07 -5.77,83.48 -7.42,82.48 -9.06,81.49 -10.30,80.81 -11.53,80.12 -11.94,79.79 -12.34,79.45 -12.60,79.18 -12.87,78.91 -13.07,78.59 -13.26,78.26 -13.38,77.90 -13.49,77.54 -13.51,77.16 -13.53,76.78 -13.46,76.40 -13.39,76.03 -13.24,75.68 -13.08,75.34 -12.85,75.04 -12.61,74.74 -12.31,74.51 -12.01,74.27 -11.66,74.12 -11.32,73.96 -10.94,73.89 -10.57,73.83 -10.19,73.85 -9.81,73.88 -9.45,73.99 -9.08,74.10 -8.76,74.30 -8.44,74.50 -6.69,75.71 -4.95,76.91 -3.99,77.66 -3.04,78.40 -1.74,79.40 -0.45,80.39 0.26,79.59 0.98,78.80 1.92,78.30 2.87,77.80 3.90,77.23 4.92,76.66 6.63,75.97 8.34,75.29 10.17,74.73 12.00,74.17 12.55,74.18 13.10,74.19 13.62,74.38 14.14,74.57 14.58,74.91 15.01,75.25 15.31,75.71 15.61,76.18 15.75,76.71 15.89,77.25 15.85,77.80 15.81,78.35 15.59,78.86 15.38,79.37 15.01,79.78 14.65,80.20 14.17,80.47 13.69,80.75 13.15,80.86 12.61,80.97 12.06,80.90 11.51,80.83 11.01,80.58 10.52,80.34 10.12,79.96 9.73,79.57 9.48,79.08 9.23,78.58 9.15,78.04 9.07,77.49 9.17,76.95 9.27,76.40 9.54,75.92 9.81,75.44 10.22,75.06 10.62,74.69 11.13,74.47 11.64,74.25 12.19,74.20 12.74,74.15 13.27,74.28 13.81,74.41 14.28,74.70 14.75,74.99 15.10,75.42 15.44,75.85 15.64,76.37 15.83,76.88 15.85,77.43 15.87,77.99 15.72,78.52 15.56,79.05 15.24,79.50 14.92,79.95 14.47,80.27 14.03,80.60 13.50,80.77 12.97,80.93 12.98,80.93 12.98,80.93 11.88,81.29 10.78,81.64 9.40,82.21 8.02,82.78 6.74,83.47 5.45,84.16 4.48,84.59 3.51,85.02 2.30,85.69 1.08,86.36 -0.59,86.53 -2.28,86.70 -3.39,85.93 -4.51,85.16 -5.62,84.25 -6.73,83.33 -7.72,82.62 -8.71,81.91 -10.52,80.68 -12.34,79.45 -12.60,79.18 -12.87,78.91 -13.07,78.59 -13.26,78.26 -13.38,77.90 -13.49,77.54 -13.51,77.16 -13.53,76.78 -13.46,76.40 -13.39,76.03 -13.24,75.68 -13.08,75.34 -12.85,75.04 -12.61,74.74 -12.31,74.51 -12.01,74.27 -11.66,74.12 -11.32,73.96 -10.94,73.89 -10.57,73.83 -10.19,73.85 -9.81,73.87 -9.45,73.99 -9.09,74.10 -8.76,74.30 -8.44,74.50 -8.35,74.66 -8.27,74.82 -7.16,75.53 -6.05,76.23 -5.12,76.77 -4.20,77.31 -2.55,78.40 -0.90,79.49 0.15,80.15 1.20,80.81 0.17,81.22 -0.85,81.64 -1.53,82.48 -2.20,83.31 -2.11,82.18 -2.02,81.05 -1.86,79.95 -1.70,78.84 -1.84,77.36 -1.97,75.88 -1.79,74.48 -1.61,73.07 -1.50,71.69 -1.39,70.31 -1.39,68.22 -1.40,66.13 -1.42,63.12 -1.43,60.12 -1.46,56.60 -1.48,53.08 -1.51,49.36 -1.55,45.63 -1.59,41.59 -1.63,37.55 -1.70,33.30 -1.76,29.04 -1.84,24.89 -1.92,20.74 -2.03,17.29 -2.14,13.84 -2.29,11.54 -2.43,9.23 -2.28,7.35 -2.13,5.46 -2.05,4.40 -1.97,3.33 -1.95,1.66 -1.94,0 -1.91,-0.23 -1.88,-0.46 -1.80,-0.68 -1.71,-0.90 -1.58,-1.09 -1.45,-1.28 -1.27,-1.44 -1.10,-1.59 -0.89,-1.70 -0.68,-1.81 -0.46,-1.87 -0.23,-1.92 0.00,-1.92 0.23,-1.92 0.46,-1.87 0.68,-1.81 0.89,-1.70 1.10,-1.59 1.27,-1.44 1.45,-1.28 1.58,-1.09 1.71,-0.90 1.80,-0.68 1.88,-0.46 1.91,-0.23 1.94,0.00 1.94,0.00 L 1.94,0 Z"></path></g><g transform="translate(317.37859847783136 171.93928660634288) rotate(0 -1.8767630271403277 -38.85991581101149)" stroke="none"><path fill="#000000" d="M -1.88,0.06 Q -1.88,0.06 -1.90,-2.66 -1.91,-5.38 -1.98,-8.24 -2.06,-11.10 -2.18,-13.82 -2.30,-16.55 -2.50,-18.91 -2.70,-21.26 -2.86,-23.38 -3.01,-25.50 -3.10,-27.51 -3.19,-29.53 -3.27,-31.36 -3.34,-33.19 -3.43,-34.79 -3.51,-36.39 -3.61,-37.49 -3.71,-38.59 -3.85,-39.66 -3.99,-40.74 -4.15,-42.68 -4.31,-44.63 -4.35,-45.70 -4.39,-46.77 -4.42,-47.85 -4.45,-48.93 -4.52,-50.69 -4.59,-52.45 -4.66,-53.77 -4.72,-55.08 -4.78,-56.41 -4.83,-57.74 -4.89,-59.00 -4.96,-60.26 -4.92,-61.74 -4.88,-63.21 -4.70,-64.29 -4.53,-65.37 -4.37,-66.90 -4.21,-68.43 -4.23,-69.57 -4.24,-70.71 -4.49,-72.01 -4.73,-73.32 -6.09,-73.70 -7.46,-74.08 -8.45,-72.76 -9.44,-71.45 -10.10,-70.34 -10.76,-69.23 -11.19,-68.03 -11.63,-66.83 -13.04,-68.55 -14.46,-70.27 -15.58,-70.30 -16.71,-70.33 -15.94,-71.20 -15.17,-72.06 -14.38,-72.93 -13.58,-73.80 -12.46,-74.95 -11.33,-76.09 -10.41,-76.89 -9.48,-77.69 -8.30,-78.29 -7.11,-78.89 -6.08,-79.25 -5.05,-79.61 -3.15,-79.10 -1.24,-78.59 -0.14,-77.83 0.95,-77.06 2.26,-76.06 3.58,-75.05 4.95,-74.03 6.32,-73.01 7.43,-72.26 8.54,-71.51 9.95,-70.62 11.36,-69.74 11.13,-66.11 10.90,-62.48 10.40,-62.56 9.91,-62.63 9.46,-62.86 9.01,-63.08 8.66,-63.44 8.31,-63.80 8.09,-64.25 7.88,-64.70 7.81,-65.20 7.75,-65.69 7.85,-66.19 7.95,-66.68 8.20,-67.11 8.45,-67.55 8.83,-67.88 9.20,-68.21 9.66,-68.40 10.13,-68.59 10.63,-68.63 11.13,-68.67 11.61,-68.54 12.10,-68.42 12.52,-68.14 12.94,-67.87 13.25,-67.47 13.56,-67.08 13.73,-66.61 13.89,-66.14 13.90,-65.63 13.91,-65.13 13.76,-64.66 13.61,-64.18 13.31,-63.77 13.01,-63.37 12.61,-63.08 12.20,-62.79 11.71,-62.65 11.23,-62.51 10.73,-62.53 10.23,-62.54 9.76,-62.72 9.29,-62.90 8.91,-63.22 8.52,-63.54 8.25,-63.96 7.99,-64.38 7.87,-64.87 7.76,-65.36 7.80,-65.86 7.85,-66.36 8.05,-66.82 8.25,-67.28 8.59,-67.64 8.93,-68.01 9.37,-68.26 9.81,-68.50 10.30,-68.59 10.79,-68.68 10.79,-68.68 10.79,-68.68 9.32,-66.67 7.86,-64.65 6.58,-65.51 5.31,-66.38 4.15,-67.06 2.99,-67.74 1.45,-68.56 -0.09,-69.38 -2.00,-70.79 -3.91,-72.19 -4.97,-71.58 -6.04,-70.97 -6.96,-69.96 -7.88,-68.96 -8.88,-67.80 -9.88,-66.65 -10.61,-65.87 -11.33,-65.09 -12.51,-64.35 -13.69,-63.61 -14.86,-63.80 -16.04,-63.98 -17.51,-65.93 -18.98,-67.89 -18.58,-69.34 -18.17,-70.79 -17.70,-71.80 -17.23,-72.81 -16.49,-73.95 -15.75,-75.10 -15.14,-76.52 -14.52,-77.94 -13.55,-78.91 -12.59,-79.87 -11.29,-80.46 -9.98,-81.05 -8.72,-81.20 -7.46,-81.35 -6.21,-81.34 -4.95,-81.33 -3.81,-81.23 -2.67,-81.13 -1.56,-80.48 -0.45,-79.84 0.15,-78.96 0.76,-78.08 1.46,-76.11 2.17,-74.15 2.28,-72.83 2.40,-71.52 2.32,-70.35 2.25,-69.19 2.13,-67.75 2.01,-66.32 1.74,-64.50 1.47,-62.69 1.38,-61.47 1.30,-60.26 1.23,-59.00 1.17,-57.74 1.11,-56.41 1.06,-55.08 1.00,-53.77 0.93,-52.45 0.86,-50.69 0.79,-48.93 0.76,-47.85 0.73,-46.77 0.69,-45.70 0.65,-44.63 0.49,-42.69 0.33,-40.75 0.20,-39.68 0.07,-38.61 -0.01,-37.51 -0.10,-36.42 -0.16,-34.83 -0.22,-33.24 -0.23,-31.44 -0.25,-29.63 -0.19,-27.68 -0.14,-25.73 0.04,-23.64 0.23,-21.55 0.49,-19.14 0.76,-16.73 0.96,-13.99 1.17,-11.25 1.36,-8.37 1.55,-5.50 1.72,-2.78 1.88,-0.06 1.86,0.16 1.84,0.39 1.77,0.60 1.70,0.82 1.57,1.01 1.45,1.20 1.28,1.36 1.12,1.52 0.92,1.63 0.72,1.74 0.50,1.80 0.28,1.86 0.06,1.87 -0.16,1.88 -0.38,1.83 -0.61,1.78 -0.81,1.68 -1.02,1.59 -1.19,1.44 -1.37,1.29 -1.50,1.11 -1.64,0.93 -1.73,0.72 -1.81,0.51 -1.85,0.28 -1.88,0.06 -1.88,0.06 L -1.88,0.06 Z"></path></g><g transform="translate(456.9949612852049 174.40901489215622) rotate(100.59993715490175 -1.4225536755885742 61.883409009487536)" stroke="none"><path fill="#000000" d="M 7.27,0 Q 7.27,0 7.19,3.00 7.11,6.00 7.05,9.11 7.00,12.21 6.95,15.40 6.91,18.58 6.88,21.23 6.85,23.88 6.90,25.64 6.96,27.39 7.06,28.68 7.15,29.97 7.22,31.43 7.28,32.90 7.29,34.61 7.30,36.33 7.24,38.38 7.18,40.43 7.01,42.92 6.84,45.42 6.56,47.81 6.28,50.21 5.97,52.36 5.66,54.52 5.34,57.00 5.01,59.48 4.67,62.29 4.33,65.10 4.07,67.59 3.81,70.08 3.64,72.08 3.47,74.07 3.40,75.67 3.34,77.27 3.36,78.61 3.39,79.96 3.40,81.38 3.41,82.80 3.34,84.37 3.27,85.93 3.21,87.44 3.15,88.95 3.17,90.15 3.19,91.36 3.28,92.67 3.38,93.97 3.36,95.67 3.33,97.36 3.08,99.17 2.83,100.98 2.43,103.75 2.03,106.51 1.71,109.26 1.39,112.01 1.20,114.15 1.01,116.29 0.96,117.84 0.90,119.40 0.87,120.52 0.84,121.64 0.79,122.52 0.74,123.41 0.69,123.68 0.64,123.95 0.52,124.19 0.41,124.44 0.24,124.66 0.07,124.87 -0.14,125.04 -0.36,125.20 -0.61,125.31 -0.86,125.42 -1.13,125.47 -1.40,125.52 -1.67,125.50 -1.94,125.48 -2.20,125.40 -2.46,125.31 -2.70,125.17 -2.93,125.02 -3.12,124.83 -3.31,124.63 -3.45,124.40 -3.59,124.16 -3.67,123.90 -3.75,123.64 -3.76,123.36 -3.78,123.09 -4.69,122.14 -5.59,121.19 -6.42,119.45 -7.25,117.70 -8.09,115.94 -8.94,114.18 -9.84,112.70 -10.73,111.21 -11.68,109.80 -12.63,108.38 -13.52,107.19 -14.41,105.99 -15.27,104.87 -16.14,103.76 -16.98,102.74 -17.83,101.73 -18.61,100.68 -19.39,99.62 -19.58,99.27 -19.77,98.91 -19.88,98.62 -19.99,98.33 -20.03,98.03 -20.07,97.72 -20.03,97.42 -20.00,97.11 -19.89,96.83 -19.78,96.54 -19.61,96.29 -19.43,96.03 -19.20,95.83 -18.97,95.62 -18.70,95.48 -18.43,95.34 -18.13,95.26 -17.83,95.19 -17.53,95.19 -17.22,95.19 -16.92,95.26 -16.62,95.33 -16.35,95.47 -16.08,95.62 -15.85,95.82 -15.62,96.02 -15.44,96.28 -15.27,96.53 -14.46,97.49 -13.66,98.45 -12.88,99.54 -12.11,100.63 -11.29,101.84 -10.48,103.05 -9.72,104.33 -8.96,105.61 -8.31,106.92 -7.66,108.24 -7.02,109.56 -6.38,110.89 -5.74,112.10 -5.09,113.31 -4.32,115.14 -3.55,116.97 -2.91,118.11 -2.27,119.26 -1.37,118.16 -0.46,117.06 1.09,115.22 2.66,113.38 3.56,112.18 4.47,110.97 5.08,110.09 5.69,109.20 6.80,107.99 7.90,106.79 8.76,105.95 9.62,105.11 12.17,103.73 14.71,102.36 15.12,102.39 15.53,102.42 15.90,102.58 16.27,102.74 16.58,103.01 16.88,103.28 17.08,103.64 17.28,103.99 17.36,104.39 17.44,104.79 17.38,105.20 17.33,105.60 17.15,105.97 16.97,106.33 16.68,106.62 16.39,106.91 16.03,107.09 15.66,107.27 15.26,107.33 14.86,107.38 14.46,107.31 14.06,107.23 13.70,107.03 13.35,106.83 13.07,106.53 12.80,106.22 12.64,105.85 12.48,105.48 12.44,105.07 12.41,104.66 12.51,104.27 12.61,103.87 12.83,103.53 13.04,103.19 13.36,102.93 13.68,102.67 14.06,102.53 14.44,102.39 14.85,102.38 15.26,102.37 15.65,102.49 16.04,102.61 16.37,102.85 16.70,103.08 16.94,103.41 17.18,103.74 17.30,104.13 17.42,104.52 17.40,104.93 17.39,105.34 17.25,105.72 17.11,106.10 16.86,106.42 16.60,106.74 16.26,106.96 15.92,107.18 15.52,107.28 15.13,107.37 15.13,107.37 15.13,107.37 13.30,108.70 11.47,110.03 10.52,111.09 9.57,112.15 8.88,112.97 8.20,113.79 7.30,114.97 6.41,116.14 4.97,118.38 3.53,120.61 2.27,122.06 1.01,123.50 -1.01,124.10 -3.03,124.71 -4.15,124.12 -5.27,123.53 -5.87,122.52 -6.48,121.51 -7.12,120.26 -7.76,119.01 -8.67,117.37 -9.58,115.73 -10.28,114.45 -10.97,113.17 -11.65,111.86 -12.33,110.54 -12.88,109.41 -13.43,108.29 -14.12,107.15 -14.80,106.02 -15.61,104.87 -16.42,103.72 -17.23,102.62 -18.03,101.51 -18.90,100.21 -19.77,98.91 -19.88,98.62 -19.99,98.33 -20.03,98.03 -20.07,97.72 -20.03,97.42 -20.00,97.11 -19.89,96.83 -19.78,96.54 -19.61,96.29 -19.43,96.03 -19.20,95.83 -18.97,95.62 -18.70,95.48 -18.43,95.34 -18.13,95.26 -17.83,95.19 -17.53,95.19 -17.22,95.19 -16.92,95.26 -16.62,95.33 -16.35,95.47 -16.08,95.62 -15.85,95.82 -15.62,96.02 -15.44,96.27 -15.27,96.53 -15.26,96.73 -15.26,96.94 -14.79,97.95 -14.32,98.97 -13.49,100.10 -12.66,101.22 -11.84,102.40 -11.03,103.59 -10.16,104.86 -9.30,106.14 -8.30,107.61 -7.30,109.09 -6.30,110.67 -5.30,112.26 -4.32,113.96 -3.34,115.65 -2.40,117.28 -1.45,118.92 -0.95,119.93 -0.45,120.94 0.14,122.17 0.74,123.41 0.69,123.68 0.64,123.95 0.52,124.19 0.41,124.44 0.24,124.66 0.07,124.87 -0.14,125.04 -0.36,125.20 -0.61,125.31 -0.86,125.42 -1.13,125.47 -1.40,125.52 -1.67,125.50 -1.94,125.48 -2.20,125.40 -2.46,125.31 -2.70,125.17 -2.93,125.02 -3.12,124.83 -3.31,124.63 -3.45,124.40 -3.59,124.16 -3.67,123.90 -3.75,123.64 -3.76,123.37 -3.78,123.09 -3.62,122.83 -3.46,122.56 -3.15,120.85 -2.85,119.13 -2.68,117.63 -2.52,116.12 -2.50,113.92 -2.48,111.72 -2.38,108.92 -2.28,106.12 -2.17,103.34 -2.07,100.57 -2.01,98.70 -1.95,96.83 -1.70,95.37 -1.45,93.90 -1.31,92.56 -1.16,91.22 -1.06,89.95 -0.96,88.69 -0.83,87.17 -0.70,85.65 -0.55,84.15 -0.40,82.64 -0.27,81.21 -0.14,79.79 0.01,78.38 0.16,76.96 0.40,75.38 0.64,73.81 0.85,71.81 1.05,69.81 1.29,67.30 1.52,64.79 1.82,61.96 2.13,59.13 2.40,56.64 2.68,54.14 2.91,52.02 3.15,49.91 3.32,47.59 3.49,45.28 3.52,42.85 3.56,40.43 3.49,38.38 3.43,36.33 3.44,34.61 3.46,32.90 3.52,31.43 3.58,29.97 3.68,28.68 3.78,27.39 3.83,25.64 3.89,23.88 3.86,21.23 3.82,18.58 3.78,15.40 3.74,12.21 3.68,9.11 3.62,6.00 3.54,3.00 3.46,0 3.49,-0.22 3.52,-0.45 3.60,-0.67 3.68,-0.88 3.81,-1.07 3.94,-1.26 4.11,-1.41 4.28,-1.56 4.49,-1.67 4.69,-1.78 4.91,-1.83 5.14,-1.89 5.37,-1.89 5.60,-1.89 5.82,-1.83 6.04,-1.78 6.25,-1.67 6.45,-1.56 6.62,-1.41 6.79,-1.26 6.92,-1.07 7.05,-0.88 7.14,-0.67 7.22,-0.45 7.24,-0.22 7.27,0.00 7.27,0.00 L 7.27,0 Z"></path></g><g transform="translate(308.5728569661187 353.7972908096827) rotate(0 2.810489772252822 -27.149652802145937)" stroke="none"><path fill="#000000" d="M -2.04,0 Q -2.04,0 -1.96,-2.08 -1.87,-4.16 -1.79,-7.03 -1.72,-9.91 -1.66,-12.71 -1.61,-15.50 -1.57,-17.63 -1.53,-19.75 -1.63,-21.06 -1.73,-22.37 -1.91,-24.25 -2.09,-26.12 -2.12,-27.64 -2.14,-29.16 -2.08,-31.09 -2.02,-33.02 -1.98,-34.93 -1.94,-36.83 -1.98,-38.37 -2.02,-39.91 -2.16,-41.57 -2.30,-43.22 -2.40,-44.32 -2.51,-45.42 -2.75,-46.79 -2.99,-48.17 -3.26,-49.68 -3.54,-51.18 -4.72,-49.62 -5.91,-48.06 -6.77,-47.19 -7.64,-46.32 -8.59,-45.35 -9.53,-44.38 -10.31,-43.48 -11.08,-42.57 -11.90,-41.47 -12.71,-40.36 -12.81,-40.11 -12.91,-39.87 -13.18,-39.59 -13.44,-39.31 -13.76,-39.11 -14.09,-38.90 -14.45,-38.78 -14.81,-38.66 -15.19,-38.63 -15.57,-38.59 -15.95,-38.66 -16.33,-38.72 -16.68,-38.86 -17.03,-39.01 -17.34,-39.24 -17.64,-39.47 -17.89,-39.77 -18.13,-40.06 -18.29,-40.41 -18.46,-40.75 -18.54,-41.13 -18.61,-41.50 -18.60,-41.88 -18.58,-42.26 -18.48,-42.63 -18.37,-43.00 -18.18,-43.33 -17.99,-43.66 -17.09,-44.44 -16.19,-45.21 -14.54,-46.52 -12.89,-47.83 -11.28,-49.01 -9.68,-50.18 -8.56,-50.89 -7.44,-51.60 -6.41,-52.37 -5.38,-53.14 -4.44,-53.71 -3.50,-54.29 -2.37,-54.58 -1.24,-54.86 0.74,-54.43 2.72,-54.00 3.93,-53.43 5.14,-52.85 6.49,-52.10 7.84,-51.35 9.11,-50.58 10.38,-49.81 11.42,-49.16 12.45,-48.51 13.70,-47.66 14.96,-46.81 16.52,-45.93 18.08,-45.06 18.96,-44.40 19.84,-43.74 21.51,-42.33 23.18,-40.92 23.55,-40.56 23.92,-40.20 24.16,-39.73 24.40,-39.27 24.48,-38.76 24.56,-38.25 24.47,-37.73 24.39,-37.22 24.14,-36.76 23.89,-36.31 23.51,-35.95 23.13,-35.60 22.66,-35.38 22.18,-35.17 21.67,-35.12 21.15,-35.07 20.64,-35.18 20.14,-35.30 19.69,-35.57 19.25,-35.84 18.92,-36.24 18.58,-36.64 18.39,-37.12 18.21,-37.61 18.18,-38.13 18.16,-38.65 18.30,-39.15 18.45,-39.65 18.74,-40.08 19.04,-40.50 19.45,-40.81 19.87,-41.13 20.36,-41.29 20.86,-41.45 21.38,-41.44 21.90,-41.44 22.39,-41.27 22.88,-41.10 23.29,-40.78 23.70,-40.46 23.99,-40.03 24.28,-39.60 24.41,-39.10 24.55,-38.59 24.51,-38.07 24.48,-37.56 24.29,-37.07 24.09,-36.59 23.75,-36.20 23.41,-35.81 22.96,-35.54 22.51,-35.28 22.00,-35.17 21.50,-35.06 20.98,-35.12 20.46,-35.18 19.99,-35.41 19.52,-35.63 19.52,-35.63 19.52,-35.63 17.75,-37.13 15.98,-38.63 14.69,-39.52 13.40,-40.41 12.34,-41.08 11.28,-41.75 10.26,-42.53 9.25,-43.30 8.32,-43.85 7.40,-44.41 6.20,-45.00 5.00,-45.60 3.71,-46.15 2.43,-46.70 0.80,-47.43 -0.82,-48.16 -1.88,-47.46 -2.95,-46.77 -3.99,-46.17 -5.03,-45.56 -6.23,-44.83 -7.42,-44.09 -9.00,-42.84 -10.58,-41.58 -11.75,-40.73 -12.91,-39.87 -13.18,-39.59 -13.44,-39.31 -13.76,-39.11 -14.09,-38.90 -14.45,-38.78 -14.81,-38.66 -15.19,-38.63 -15.57,-38.59 -15.95,-38.66 -16.33,-38.72 -16.68,-38.86 -17.03,-39.01 -17.34,-39.24 -17.64,-39.47 -17.89,-39.77 -18.13,-40.06 -18.29,-40.41 -18.46,-40.75 -18.54,-41.13 -18.61,-41.50 -18.60,-41.88 -18.58,-42.26 -18.48,-42.63 -18.37,-43.00 -18.18,-43.33 -17.99,-43.66 -17.88,-43.88 -17.76,-44.10 -16.82,-45.28 -15.87,-46.45 -15.05,-47.52 -14.23,-48.59 -13.33,-49.67 -12.43,-50.76 -10.98,-52.46 -9.52,-54.15 -8.35,-55.17 -7.18,-56.19 -5.36,-56.81 -3.55,-57.43 -2.39,-57.38 -1.23,-57.32 0.03,-56.47 1.30,-55.61 1.71,-54.53 2.11,-53.44 2.31,-52.18 2.51,-50.91 2.53,-49.65 2.56,-48.39 2.53,-46.90 2.51,-45.42 2.40,-44.32 2.30,-43.22 2.16,-41.57 2.02,-39.91 1.98,-38.37 1.94,-36.83 1.98,-34.93 2.02,-33.02 2.08,-31.09 2.14,-29.16 2.12,-27.64 2.09,-26.12 1.91,-24.25 1.73,-22.37 1.63,-21.06 1.53,-19.75 1.57,-17.63 1.61,-15.50 1.66,-12.71 1.72,-9.91 1.79,-7.03 1.87,-4.16 1.96,-2.08 2.04,0 2.01,0.24 1.98,0.48 1.90,0.72 1.81,0.95 1.67,1.15 1.53,1.35 1.34,1.52 1.16,1.68 0.94,1.79 0.72,1.91 0.48,1.97 0.24,2.03 -0.00,2.03 -0.24,2.03 -0.48,1.97 -0.72,1.91 -0.94,1.79 -1.16,1.68 -1.34,1.52 -1.53,1.35 -1.67,1.15 -1.81,0.95 -1.90,0.72 -1.98,0.48 -2.01,0.24 -2.04,-0.00 -2.04,-0.00 L -2.04,0 Z"></path></g><g transform="translate(350.37649516763986 104.05599490349005) rotate(0 157 23)"><text x="0" y="32" font-family="Virgil, Segoe UI Emoji" font-size="36px" fill="#000000" text-anchor="start" style="white-space: pre;" direction="ltr">output, ex. pages</text></g><g transform="translate(76.36523974112163 103.53123953638112) rotate(0 36 23)"><text x="0" y="32" font-family="Virgil, Segoe UI Emoji" font-size="36px" fill="#000000" text-anchor="start" style="white-space: pre;" direction="ltr">click</text></g><g transform="translate(60.3517558357637 302.9524684286511) rotate(0 100.5 23)"><text x="0" y="32" font-family="Virgil, Segoe UI Emoji" font-size="36px" fill="#000000" text-anchor="start" style="white-space: pre;" direction="ltr">suggestions</text></g><g transform="translate(522.4416588367505 333.6500271650786) rotate(0 87.5 23)"><text x="0" y="32" font-family="Virgil, Segoe UI Emoji" font-size="36px" fill="#000000" text-anchor="start" style="white-space: pre;" direction="ltr">properties</text></g><g stroke-linecap="round" transform="translate(10 185.19729163940417) rotate(0 400.1681664529558 150.75439119718803)"><path d="M468.7 2.96 C497.69 2.56, 527.56 7.88, 555.13 12.11 C582.71 16.33, 609.95 21.72, 634.15 28.3 C658.35 34.89, 680.68 43.25, 700.34 51.63 C720 60, 737.89 69.04, 752.12 78.58 C766.34 88.12, 777.72 98.1, 785.7 108.86 C793.67 119.62, 798.52 131.97, 799.99 143.15 C801.45 154.32, 799.47 164.9, 794.48 175.91 C789.49 186.91, 781.67 198.6, 770.04 209.18 C758.41 219.76, 742.31 230.4, 724.69 239.4 C707.07 248.4, 686.38 256.06, 664.33 263.18 C642.28 270.3, 618.37 276.55, 592.39 282.12 C566.42 287.69, 537.23 293.53, 508.5 296.58 C479.77 299.64, 449.66 300.07, 420.02 300.45 C390.39 300.84, 360.01 300.79, 330.7 298.9 C301.38 297.01, 271.52 293.26, 244.14 289.11 C216.77 284.95, 190.52 280.36, 166.45 273.98 C142.38 267.6, 119.35 259.32, 99.73 250.84 C80.1 242.36, 62.93 233.09, 48.69 223.12 C34.44 213.14, 22.34 201.67, 14.27 191 C6.21 180.32, 1.82 170.07, 0.29 159.07 C-1.23 148.07, 0.1 135.99, 5.13 124.99 C10.16 113.99, 18.81 103.41, 30.48 93.07 C42.15 82.73, 57.58 72.27, 75.15 62.97 C92.72 53.67, 113.53 44.74, 135.9 37.28 C158.26 29.82, 183.51 23.55, 209.33 18.21 C235.15 12.87, 262.3 8.31, 290.83 5.22 C319.36 2.13, 346.06 -0.27, 380.52 -0.31 C414.99 -0.35, 473.47 3.23, 497.59 4.98 C521.71 6.74, 526.78 7.69, 525.24 10.22 M321.92 1.9 C348.56 -2.53, 381.52 0.95, 410.84 1.2 C440.15 1.44, 469.2 0.6, 497.79 3.4 C526.38 6.2, 555.67 12.54, 582.37 18.01 C609.07 23.47, 635.19 29.35, 658 36.17 C680.81 43, 701.47 50.32, 719.22 58.96 C736.97 67.61, 752.47 77.72, 764.49 88.05 C776.52 98.39, 785.58 110, 791.37 120.95 C797.17 131.91, 799.91 142.52, 799.27 153.77 C798.63 165.02, 794.89 177.32, 787.53 188.44 C780.17 199.57, 768.43 210.86, 755.09 220.52 C741.75 230.18, 726.44 237.8, 707.49 246.4 C688.54 254.99, 665.39 265.24, 641.39 272.07 C617.39 278.9, 590.22 282.94, 563.49 287.39 C536.76 291.85, 509.84 296.61, 481 298.79 C452.17 300.97, 420.45 300.58, 390.49 300.48 C360.53 300.38, 329.96 300.54, 301.24 298.17 C272.51 295.8, 244.34 291.71, 218.12 286.25 C191.91 280.8, 166.92 272.99, 143.96 265.43 C121 257.87, 98.34 249.65, 80.37 240.89 C62.4 232.14, 48.34 222.9, 36.15 212.92 C23.96 202.94, 13.24 192.08, 7.24 181 C1.24 169.92, -0.64 157.7, 0.14 146.44 C0.93 135.17, 4.49 124.05, 11.96 113.42 C19.43 102.79, 31.5 92.31, 44.94 82.63 C58.37 72.95, 73.85 64.11, 92.58 55.32 C111.3 46.54, 133.29 37.12, 157.3 29.92 C181.31 22.72, 209.52 16.68, 236.63 12.1 C263.75 7.52, 305.55 3.39, 319.98 2.44 C334.4 1.49, 321.57 3.88, 323.18 6.41" stroke="#5f3dc4" stroke-width="1" fill="none"></path></g><g transform="translate(615.6692702350434 420.97715682930226) rotate(0 44.5 23)"><text x="0" y="32" font-family="Virgil, Segoe UI Emoji" font-size="36px" fill="#5f3dc4" text-anchor="start" style="white-space: pre;" direction="ltr">cloud</text></g><g transform="translate(541.4471594807956 308.6413549901557) rotate(0 -68.33801524569759 34.297360387132386)" stroke="none"><path fill="#000000" d="M 0.39,1.79 Q 0.39,1.79 -0.87,2.14 -2.15,2.49 -3.29,3.13 -4.44,3.76 -5.83,4.52 -7.23,5.28 -8.57,6.03 -9.91,6.77 -11.43,7.54 -12.95,8.31 -14.96,9.12 -16.96,9.93 -19.21,10.88 -21.47,11.82 -23.64,12.71 -25.82,13.60 -27.98,14.49 -30.15,15.37 -32.33,16.37 -34.51,17.36 -36.66,18.46 -38.82,19.57 -40.92,20.69 -43.02,21.82 -44.87,22.84 -46.72,23.87 -48.15,24.84 -49.58,25.80 -50.69,26.69 -51.80,27.58 -52.79,28.42 -53.79,29.26 -54.77,30.09 -55.75,30.91 -56.78,31.74 -57.82,32.57 -59.11,33.42 -60.41,34.27 -61.94,35.05 -63.47,35.83 -65.07,36.56 -66.68,37.30 -68.30,38.05 -69.92,38.81 -71.61,39.54 -73.30,40.26 -74.89,40.94 -76.49,41.61 -77.76,42.26 -79.03,42.90 -80.49,43.79 -81.96,44.67 -83.13,45.18 -84.31,45.68 -86.32,46.63 -88.34,47.58 -90.18,48.22 -92.02,48.87 -93.81,49.56 -95.60,50.25 -97.07,50.90 -98.54,51.56 -100.52,52.27 -102.49,52.98 -105.06,53.79 -107.62,54.61 -110.05,55.28 -112.48,55.96 -114.64,56.56 -116.81,57.15 -118.77,57.74 -120.74,58.32 -122.42,58.89 -124.11,59.46 -125.56,59.95 -127.01,60.44 -128.25,60.84 -129.49,61.24 -130.51,61.58 -131.54,61.92 -132.87,62.45 -134.20,62.98 -134.61,61.34 -135.02,59.70 -134.85,58.62 -134.69,57.55 -133.73,56.91 -132.78,56.28 -131.55,55.06 -130.33,53.85 -129.49,52.94 -128.66,52.02 -127.88,51.21 -127.10,50.40 -125.95,49.41 -124.81,48.42 -124.12,47.54 -123.43,46.67 -122.64,45.43 -121.85,44.18 -120.13,42.06 -118.41,39.93 -117.44,38.70 -116.47,37.47 -115.72,36.63 -114.98,35.79 -114.71,35.37 -114.44,34.95 -114.22,34.70 -114.00,34.45 -113.72,34.25 -113.45,34.06 -113.14,33.94 -112.82,33.82 -112.49,33.78 -112.16,33.74 -111.82,33.78 -111.49,33.82 -111.18,33.93 -110.86,34.05 -110.58,34.24 -110.31,34.43 -110.08,34.68 -109.86,34.93 -109.70,35.23 -109.55,35.53 -109.47,35.85 -109.38,36.18 -109.38,36.51 -109.38,36.85 -109.46,37.17 -109.54,37.50 -109.69,37.80 -109.85,38.10 -110.75,39.01 -111.65,39.93 -113.87,42.25 -116.09,44.57 -117.48,46.02 -118.88,47.47 -119.80,48.58 -120.73,49.69 -121.57,50.97 -122.41,52.25 -123.34,53.08 -124.27,53.91 -125.50,54.94 -126.73,55.98 -128.16,57.29 -129.60,58.60 -130.65,57.65 -131.69,56.71 -130.49,56.79 -129.28,56.87 -127.70,57.21 -126.11,57.54 -123.89,58.23 -121.66,58.93 -119.93,59.64 -118.19,60.35 -116.41,61.14 -114.62,61.93 -112.89,62.71 -111.16,63.48 -109.80,64.13 -108.43,64.78 -108.08,67.56 -107.72,70.34 -107.98,70.04 -108.24,69.74 -108.39,69.37 -108.54,69.00 -108.56,68.61 -108.59,68.21 -108.48,67.83 -108.38,67.44 -108.16,67.11 -107.94,66.78 -107.62,66.54 -107.31,66.30 -106.93,66.17 -106.55,66.04 -106.16,66.04 -105.76,66.04 -105.38,66.16 -105.01,66.29 -104.69,66.53 -104.37,66.77 -104.15,67.09 -103.92,67.42 -103.82,67.80 -103.71,68.18 -103.73,68.58 -103.75,68.98 -103.89,69.35 -104.04,69.72 -104.29,70.02 -104.55,70.32 -104.89,70.53 -105.23,70.74 -105.61,70.82 -106.00,70.91 -106.39,70.87 -106.79,70.83 -107.15,70.66 -107.51,70.50 -107.80,70.23 -108.09,69.96 -108.28,69.61 -108.47,69.26 -108.53,68.87 -108.60,68.47 -108.54,68.08 -108.47,67.69 -108.29,67.34 -108.11,66.99 -107.82,66.71 -107.53,66.44 -107.17,66.27 -106.81,66.10 -106.42,66.06 -106.02,66.01 -105.64,66.09 -105.25,66.18 -104.91,66.38 -104.57,66.58 -104.57,66.58 -104.57,66.58 -107.57,67.88 -110.57,69.19 -111.75,68.60 -112.92,68.02 -114.67,67.45 -116.41,66.87 -118.23,66.36 -120.04,65.85 -121.65,65.43 -123.26,65.02 -124.70,64.71 -126.14,64.39 -127.89,63.89 -129.65,63.38 -130.93,63.14 -132.21,62.90 -133.53,62.41 -134.84,61.92 -135.40,59.98 -135.96,58.05 -135.45,57.10 -134.94,56.16 -133.48,54.58 -132.02,53.01 -131.17,52.29 -130.31,51.58 -129.44,50.91 -128.57,50.23 -127.51,49.71 -126.44,49.20 -125.34,47.94 -124.25,46.68 -123.30,45.59 -122.35,44.51 -121.15,42.93 -119.95,41.34 -118.33,39.10 -116.71,36.86 -115.58,35.90 -114.44,34.95 -114.22,34.70 -114.00,34.45 -113.72,34.25 -113.45,34.06 -113.14,33.94 -112.82,33.82 -112.49,33.78 -112.16,33.74 -111.82,33.78 -111.49,33.82 -111.18,33.93 -110.86,34.05 -110.58,34.24 -110.31,34.43 -110.08,34.68 -109.86,34.93 -109.70,35.23 -109.55,35.53 -109.47,35.85 -109.38,36.18 -109.38,36.51 -109.38,36.85 -109.46,37.17 -109.54,37.50 -109.69,37.80 -109.85,38.10 -110.14,38.42 -110.43,38.75 -111.40,39.68 -112.36,40.61 -113.22,41.77 -114.08,42.93 -115.31,45.08 -116.54,47.22 -117.73,49.40 -118.92,51.58 -120.39,52.69 -121.86,53.80 -123.02,54.85 -124.19,55.91 -125.05,56.94 -125.91,57.98 -127.68,59.66 -129.44,61.34 -130.80,62.04 -132.17,62.74 -133.31,63.17 -134.45,63.60 -135.62,63.79 -136.80,63.97 -137.81,62.52 -138.81,61.08 -137.23,59.77 -135.65,58.46 -134.11,58.16 -132.57,57.85 -131.51,57.66 -130.45,57.48 -129.22,57.25 -127.99,57.02 -126.53,56.67 -125.08,56.33 -123.36,55.84 -121.65,55.36 -119.69,54.73 -117.73,54.11 -115.60,53.42 -113.48,52.72 -111.16,51.94 -108.85,51.15 -106.45,50.20 -104.05,49.25 -102.21,48.37 -100.37,47.49 -98.89,46.81 -97.41,46.14 -95.67,45.27 -93.92,44.41 -92.16,43.52 -90.40,42.63 -89.14,42.08 -87.87,41.53 -86.36,41.10 -84.85,40.67 -83.83,40.30 -82.81,39.93 -81.82,39.51 -80.83,39.08 -79.45,38.48 -78.07,37.87 -76.51,37.21 -74.95,36.55 -73.35,35.81 -71.74,35.07 -70.12,34.25 -68.50,33.43 -66.97,32.68 -65.44,31.93 -64.09,31.26 -62.73,30.58 -61.53,29.86 -60.33,29.14 -59.24,28.41 -58.15,27.68 -57.08,26.97 -56.01,26.26 -54.87,25.53 -53.74,24.81 -52.46,24.02 -51.18,23.24 -49.63,22.35 -48.07,21.46 -46.22,20.41 -44.36,19.35 -42.26,18.19 -40.15,17.02 -37.96,15.85 -35.77,14.68 -33.57,13.61 -31.37,12.54 -29.25,11.58 -27.12,10.61 -25.02,9.63 -22.92,8.64 -20.74,7.55 -18.55,6.47 -16.72,5.51 -14.88,4.56 -13.40,3.79 -11.91,3.02 -10.55,2.32 -9.18,1.62 -7.72,0.85 -6.25,0.09 -4.64,-0.63 -3.02,-1.36 -1.70,-1.58 -0.39,-1.79 -0.17,-1.81 0.04,-1.84 0.26,-1.80 0.48,-1.77 0.69,-1.69 0.89,-1.60 1.07,-1.47 1.25,-1.34 1.39,-1.17 1.54,-1.00 1.63,-0.80 1.73,-0.60 1.78,-0.38 1.83,-0.17 1.82,0.04 1.82,0.27 1.76,0.48 1.70,0.69 1.59,0.89 1.48,1.08 1.33,1.24 1.18,1.40 0.99,1.53 0.81,1.65 0.60,1.72 0.39,1.79 0.39,1.79 L 0.39,1.79 Z"></path></g><g transform="translate(447.35702038761167 182.33555117828945) rotate(0 49 23)"><text x="0" y="32" font-family="Virgil, Segoe UI Emoji" font-size="36px" fill="#000000" text-anchor="start" style="white-space: pre;" direction="ltr">posts</text></g></svg>