<svg version="1.1" xmlns="http://www.w3.org/2000/svg" viewBox="0 0 1026.0338978729876 501.77802498919954" width="2052.067795745975" height="1003.5560499783991">
  <!-- svg-source:excalidraw -->
  
  <defs>
    <style>
      @font-face {
        font-family: "Virgil";
        src: url("https://excalidraw.com/Virgil.woff2");
      }
      @font-face {
        font-family: "Cascadia";
        src: url("https://excalidraw.com/Cascadia.woff2");
      }
    </style>
  </defs>
  <rect x="0" y="0" width="1026.0338978729876" height="501.77802498919954" fill="#ffffff"></rect><g stroke-linecap="round" transform="translate(144.72380079266202 10) rotate(0 101.48938424330464 35.128871298005706)"><path d="M0.7 1.78 C42.41 -2.87, 85.19 -1.95, 202.72 1.22 M-0.59 0.24 C47.52 0.33, 95.06 0.98, 202.59 0.4 M203 1.68 C203.24 15.25, 204.07 32.28, 204.95 68.96 M202.55 -0.69 C202.44 23.54, 202.6 45.73, 203.56 69.75 M202.28 70.09 C134.61 69.44, 65.47 70.91, -0.94 71.27 M202.58 71.05 C132.68 69.12, 61.67 68.58, 0.24 69.53 M0.09 69.13 C0.12 54.85, 0.53 40.41, 1.25 -1.46 M0.58 69.89 C0.55 48.27, 0.26 27.58, -0.72 -0.57" stroke="#000000" stroke-width="1" fill="none"></path></g><g transform="translate(192.90337336407492 23.38336544297789) rotate(0 46.5 23)"><text x="0" y="32" font-family="Virgil, Segoe UI Emoji" font-size="36px" fill="#000000" text-anchor="start" style="white-space: pre;" direction="ltr">client</text></g><g stroke-linecap="round" transform="translate(143.28997004608402 333.11923372146003) rotate(0 101.5 28)"><path d="M-0.37 -1.5 C64.53 1.73, 125.84 2.27, 202.93 -1.35 M0.27 0.1 C44.34 -1.55, 89.76 -1.11, 202.52 -0.7 M204.23 1.56 C204.91 16.53, 204.01 34.42, 201.04 55.97 M203.59 0.81 C203.42 19.08, 203.57 36.08, 202.08 55.91 M203.11 54.4 C134.56 53.87, 69.18 52.97, -1.6 56.95 M202.38 55.3 C128.93 57.59, 55.7 56.11, 0.48 55.45 M-0.59 55.19 C-2.11 33.97, 1.21 14.93, -0.08 -0.37 M-0.08 55.12 C-1.18 34.53, -0.93 13.17, -0.56 0.4" stroke="#000000" stroke-width="1" fill="none"></path></g><g stroke-linecap="round" transform="translate(786.8332995416672 35.84677680840903) rotate(0 101.5 35.128871298005706)"><path d="M1.76 0.23 C45.59 1.69, 92.45 2.1, 203.77 -0.3 M-0.41 0.65 C55.46 1.66, 109.72 2.45, 203.28 0.86 M203.13 -1.51 C202.83 19.41, 203.19 41.59, 202.01 70.36 M202.86 -0.96 C203.6 14.96, 202.2 32.03, 203.03 70.53 M201.83 71.79 C138.16 69.26, 72.26 71.68, -0.57 68.66 M203.75 69.77 C143.32 70.93, 83.63 71.49, 0.13 70.22 M-2 70.63 C0.37 46.43, -2.04 23.79, -1.22 -1.8 M-0.95 69.82 C0.3 43.35, -0.31 14.33, -0.22 0.65" stroke="#000000" stroke-width="1" fill="none"></path></g><g stroke-linecap="round" transform="translate(495.5353324801383 224.52389975798008) rotate(0 101.5 35.12887129800569)"><path d="M-0.25 -1.72 C47.44 -1.48, 90.78 0.68, 203.05 0.49 M-0.59 0.77 C65.43 -0.23, 130.32 0.98, 202.72 -0.8 M204.67 -1.08 C202.69 21.11, 202.76 43.03, 203.29 70.16 M202 0.19 C203.39 23.38, 202.19 47.35, 202.39 69.36 M201.29 69.48 C124.63 72.47, 44.04 69.78, -0.39 71.41 M202.71 69.81 C143.13 69.17, 80.92 69.18, 0.15 69.39 M-0.93 69.71 C1.64 43.51, -0.76 18.47, -1.24 0.87 M0.88 70.45 C0.41 47.3, 0.5 21.76, 0.1 -0.11" stroke="#000000" stroke-width="1" fill="none"></path></g><g transform="translate(148.28997004608402 338.11923372146003) rotate(0 96.5 23)"><text x="96.5" y="32" font-family="Virgil, Segoe UI Emoji" font-size="36px" fill="#000000" text-anchor="middle" style="white-space: pre;" direction="ltr">Index</text></g><g transform="translate(500.5353324801383 236.6527710559858) rotate(0 96.5 23)"><text x="96.5" y="32" font-family="Virgil, Segoe UI Emoji" font-size="36px" fill="#000000" text-anchor="middle" style="white-space: pre;" direction="ltr">Crawlers</text></g><g transform="translate(791.8332995416672 47.975648106414724) rotate(0 96.5 23)"><text x="96.5" y="32" font-family="Virgil, Segoe UI Emoji" font-size="36px" fill="#000000" text-anchor="middle" style="white-space: pre;" direction="ltr">websites</text></g><g stroke-linecap="round" transform="translate(138.1132635680218 190.2920302523993) rotate(0 101.5 35.12887129800569)"><path d="M-0.67 -1.33 C43.6 -0.87, 87.08 1.3, 202.81 1.44 M0.82 -0.64 C75.44 2.12, 151.16 0.86, 203.07 0.76 M202.36 -1.04 C204.84 24.87, 205.31 49.38, 202.59 69.96 M202.57 0.84 C203.86 17.95, 204.31 37.35, 202.21 71.18 M202.75 68.91 C139.07 68.96, 73.39 70.7, -0.87 70.07 M202.68 70.31 C148.09 70.42, 93.06 69.12, 0.16 70.13 M-0.01 69.81 C0.86 57.21, 1.4 42.34, 1.39 0.95 M0.78 69.58 C-0.01 45.18, -0.43 19.02, 0.6 0.62" stroke="#000000" stroke-width="1" fill="none"></path></g><g transform="translate(143.1132635680218 202.420901550405) rotate(0 96.5 23)"><text x="96.5" y="32" font-family="Virgil, Segoe UI Emoji" font-size="36px" fill="#000000" text-anchor="middle" style="white-space: pre;" direction="ltr">search</text></g><g transform="translate(210.68970281583802 94.35645103239364) rotate(0 0.9068965516805179 41.847971044627926)" stroke="none"><path fill="#000000" d="M 1.94,0 Q 1.94,0 1.95,1.66 1.97,3.33 2.05,4.40 2.13,5.46 2.28,7.35 2.43,9.23 2.29,11.54 2.14,13.84 2.03,17.29 1.92,20.74 1.84,24.89 1.76,29.04 1.70,33.30 1.63,37.55 1.59,41.59 1.55,45.63 1.51,49.36 1.48,53.08 1.46,56.60 1.43,60.12 1.42,63.12 1.40,66.13 1.39,68.22 1.39,70.31 1.50,71.69 1.61,73.07 1.79,74.48 1.97,75.88 2.48,77.00 2.98,78.11 3.12,79.58 3.26,81.04 3.36,82.20 3.45,83.36 2.71,84.46 1.96,85.57 0.33,85.82 -1.29,86.08 -2.64,85.37 -3.98,84.66 -4.87,84.07 -5.77,83.48 -7.42,82.48 -9.06,81.49 -10.30,80.81 -11.53,80.12 -11.94,79.79 -12.34,79.45 -12.60,79.18 -12.87,78.91 -13.07,78.59 -13.26,78.26 -13.38,77.90 -13.49,77.54 -13.51,77.16 -13.53,76.78 -13.46,76.40 -13.39,76.03 -13.24,75.68 -13.08,75.34 -12.85,75.04 -12.61,74.74 -12.31,74.51 -12.01,74.27 -11.66,74.12 -11.32,73.96 -10.94,73.89 -10.57,73.83 -10.19,73.85 -9.81,73.88 -9.45,73.99 -9.08,74.10 -8.76,74.30 -8.44,74.50 -6.69,75.71 -4.95,76.91 -3.99,77.66 -3.04,78.40 -1.74,79.40 -0.45,80.39 0.26,79.59 0.98,78.80 1.92,78.30 2.87,77.80 3.90,77.23 4.92,76.66 6.63,75.97 8.34,75.29 10.17,74.73 12.00,74.17 12.55,74.18 13.10,74.19 13.62,74.38 14.14,74.57 14.58,74.91 15.01,75.25 15.31,75.71 15.61,76.18 15.75,76.71 15.89,77.25 15.85,77.80 15.81,78.35 15.59,78.86 15.38,79.37 15.01,79.78 14.65,80.20 14.17,80.47 13.69,80.75 13.15,80.86 12.61,80.97 12.06,80.90 11.51,80.83 11.01,80.58 10.52,80.34 10.12,79.96 9.73,79.57 9.48,79.08 9.23,78.58 9.15,78.04 9.07,77.49 9.17,76.95 9.27,76.40 9.54,75.92 9.81,75.44 10.22,75.06 10.62,74.69 11.13,74.47 11.64,74.25 12.19,74.20 12.74,74.15 13.27,74.28 13.81,74.41 14.28,74.70 14.75,74.99 15.10,75.42 15.44,75.85 15.64,76.37 15.83,76.88 15.85,77.43 15.87,77.99 15.72,78.52 15.56,79.05 15.24,79.50 14.92,79.95 14.47,80.27 14.03,80.60 13.50,80.77 12.97,80.93 12.98,80.93 12.98,80.93 11.88,81.29 10.78,81.64 9.40,82.21 8.02,82.78 6.74,83.47 5.45,84.16 4.48,84.59 3.51,85.02 2.30,85.69 1.08,86.36 -0.59,86.53 -2.28,86.70 -3.39,85.93 -4.51,85.16 -5.62,84.25 -6.73,83.33 -7.72,82.62 -8.71,81.91 -10.52,80.68 -12.34,79.45 -12.60,79.18 -12.87,78.91 -13.07,78.59 -13.26,78.26 -13.38,77.90 -13.49,77.54 -13.51,77.16 -13.53,76.78 -13.46,76.40 -13.39,76.03 -13.24,75.68 -13.08,75.34 -12.85,75.04 -12.61,74.74 -12.31,74.51 -12.01,74.27 -11.66,74.12 -11.32,73.96 -10.94,73.89 -10.57,73.83 -10.19,73.85 -9.81,73.87 -9.45,73.99 -9.09,74.10 -8.76,74.30 -8.44,74.50 -8.35,74.66 -8.27,74.82 -7.16,75.53 -6.05,76.23 -5.12,76.77 -4.20,77.31 -2.55,78.40 -0.90,79.49 0.15,80.15 1.20,80.81 0.17,81.22 -0.85,81.64 -1.53,82.48 -2.20,83.31 -2.11,82.18 -2.02,81.05 -1.86,79.95 -1.70,78.84 -1.84,77.36 -1.97,75.88 -1.79,74.48 -1.61,73.07 -1.50,71.69 -1.39,70.31 -1.39,68.22 -1.40,66.13 -1.42,63.12 -1.43,60.12 -1.46,56.60 -1.48,53.08 -1.51,49.36 -1.55,45.63 -1.59,41.59 -1.63,37.55 -1.70,33.30 -1.76,29.04 -1.84,24.89 -1.92,20.74 -2.03,17.29 -2.14,13.84 -2.29,11.54 -2.43,9.23 -2.28,7.35 -2.13,5.46 -2.05,4.40 -1.97,3.33 -1.95,1.66 -1.94,0 -1.91,-0.23 -1.88,-0.46 -1.80,-0.68 -1.71,-0.90 -1.58,-1.09 -1.45,-1.28 -1.27,-1.44 -1.10,-1.59 -0.89,-1.70 -0.68,-1.81 -0.46,-1.87 -0.23,-1.92 0.00,-1.92 0.23,-1.92 0.46,-1.87 0.68,-1.81 0.89,-1.70 1.10,-1.59 1.27,-1.44 1.45,-1.28 1.58,-1.09 1.71,-0.90 1.80,-0.68 1.88,-0.46 1.91,-0.23 1.94,0.00 1.94,0.00 L 1.94,0 Z"></path></g><g transform="translate(276.58174077629076 171.93928660634288) rotate(0 -1.8767630271403277 -38.85991581101149)" stroke="none"><path fill="#000000" d="M -1.88,0.06 Q -1.88,0.06 -1.90,-2.66 -1.91,-5.38 -1.98,-8.24 -2.06,-11.10 -2.18,-13.82 -2.30,-16.55 -2.50,-18.91 -2.70,-21.26 -2.86,-23.38 -3.01,-25.50 -3.10,-27.51 -3.19,-29.53 -3.27,-31.36 -3.34,-33.19 -3.43,-34.79 -3.51,-36.39 -3.61,-37.49 -3.71,-38.59 -3.85,-39.66 -3.99,-40.74 -4.15,-42.68 -4.31,-44.63 -4.35,-45.70 -4.39,-46.77 -4.42,-47.85 -4.45,-48.93 -4.52,-50.69 -4.59,-52.45 -4.66,-53.77 -4.72,-55.08 -4.78,-56.41 -4.83,-57.74 -4.89,-59.00 -4.96,-60.26 -4.92,-61.74 -4.88,-63.21 -4.70,-64.29 -4.53,-65.37 -4.37,-66.90 -4.21,-68.43 -4.23,-69.57 -4.24,-70.71 -4.49,-72.01 -4.73,-73.32 -6.09,-73.70 -7.46,-74.08 -8.45,-72.76 -9.44,-71.45 -10.10,-70.34 -10.76,-69.23 -11.19,-68.03 -11.63,-66.83 -13.04,-68.55 -14.46,-70.27 -15.58,-70.30 -16.71,-70.33 -15.94,-71.20 -15.17,-72.06 -14.38,-72.93 -13.58,-73.80 -12.46,-74.95 -11.33,-76.09 -10.41,-76.89 -9.48,-77.69 -8.30,-78.29 -7.11,-78.89 -6.08,-79.25 -5.05,-79.61 -3.15,-79.10 -1.24,-78.59 -0.14,-77.83 0.95,-77.06 2.26,-76.06 3.58,-75.05 4.95,-74.03 6.32,-73.01 7.43,-72.26 8.54,-71.51 9.95,-70.62 11.36,-69.74 11.13,-66.11 10.90,-62.48 10.40,-62.56 9.91,-62.63 9.46,-62.86 9.01,-63.08 8.66,-63.44 8.31,-63.80 8.09,-64.25 7.88,-64.70 7.81,-65.20 7.75,-65.69 7.85,-66.19 7.95,-66.68 8.20,-67.11 8.45,-67.55 8.83,-67.88 9.20,-68.21 9.66,-68.40 10.13,-68.59 10.63,-68.63 11.13,-68.67 11.61,-68.54 12.10,-68.42 12.52,-68.14 12.94,-67.87 13.25,-67.47 13.56,-67.08 13.73,-66.61 13.89,-66.14 13.90,-65.63 13.91,-65.13 13.76,-64.66 13.61,-64.18 13.31,-63.77 13.01,-63.37 12.61,-63.08 12.20,-62.79 11.71,-62.65 11.23,-62.51 10.73,-62.53 10.23,-62.54 9.76,-62.72 9.29,-62.90 8.91,-63.22 8.52,-63.54 8.25,-63.96 7.99,-64.38 7.87,-64.87 7.76,-65.36 7.80,-65.86 7.85,-66.36 8.05,-66.82 8.25,-67.28 8.59,-67.64 8.93,-68.01 9.37,-68.26 9.81,-68.50 10.30,-68.59 10.79,-68.68 10.79,-68.68 10.79,-68.68 9.32,-66.67 7.86,-64.65 6.58,-65.51 5.31,-66.38 4.15,-67.06 2.99,-67.74 1.45,-68.56 -0.09,-69.38 -2.00,-70.79 -3.91,-72.19 -4.97,-71.58 -6.04,-70.97 -6.96,-69.96 -7.88,-68.96 -8.88,-67.80 -9.88,-66.65 -10.61,-65.87 -11.33,-65.09 -12.51,-64.35 -13.69,-63.61 -14.86,-63.80 -16.04,-63.98 -17.51,-65.93 -18.98,-67.89 -18.58,-69.34 -18.17,-70.79 -17.70,-71.80 -17.23,-72.81 -16.49,-73.95 -15.75,-75.10 -15.14,-76.52 -14.52,-77.94 -13.55,-78.91 -12.59,-79.87 -11.29,-80.46 -9.98,-81.05 -8.72,-81.20 -7.46,-81.35 -6.21,-81.34 -4.95,-81.33 -3.81,-81.23 -2.67,-81.13 -1.56,-80.48 -0.45,-79.84 0.15,-78.96 0.76,-78.08 1.46,-76.11 2.17,-74.15 2.28,-72.83 2.40,-71.52 2.32,-70.35 2.25,-69.19 2.13,-67.75 2.01,-66.32 1.74,-64.50 1.47,-62.69 1.38,-61.47 1.30,-60.26 1.23,-59.00 1.17,-57.74 1.11,-56.41 1.06,-55.08 1.00,-53.77 0.93,-52.45 0.86,-50.69 0.79,-48.93 0.76,-47.85 0.73,-46.77 0.69,-45.70 0.65,-44.63 0.49,-42.69 0.33,-40.75 0.20,-39.68 0.07,-38.61 -0.01,-37.51 -0.10,-36.42 -0.16,-34.83 -0.22,-33.24 -0.23,-31.44 -0.25,-29.63 -0.19,-27.68 -0.14,-25.73 0.04,-23.64 0.23,-21.55 0.49,-19.14 0.76,-16.73 0.96,-13.99 1.17,-11.25 1.36,-8.37 1.55,-5.50 1.72,-2.78 1.88,-0.06 1.86,0.16 1.84,0.39 1.77,0.60 1.70,0.82 1.57,1.01 1.45,1.20 1.28,1.36 1.12,1.52 0.92,1.63 0.72,1.74 0.50,1.80 0.28,1.86 0.06,1.87 -0.16,1.88 -0.38,1.83 -0.61,1.78 -0.81,1.68 -1.02,1.59 -1.19,1.44 -1.37,1.29 -1.50,1.11 -1.64,0.93 -1.73,0.72 -1.81,0.51 -1.85,0.28 -1.88,0.06 -1.88,0.06 L -1.88,0.06 Z"></path></g><g transform="translate(217.60321342379416 267.58226365979044) rotate(0 -5.217392212029665 29.105429848601176)" stroke="none"><path fill="#000000" d="M 2.57,0 Q 2.57,0 2.56,1.41 2.55,2.82 2.54,4.28 2.53,5.74 2.51,7.24 2.50,8.74 2.52,9.98 2.54,11.23 2.63,12.66 2.71,14.09 2.78,15.59 2.85,17.08 2.78,19.30 2.72,21.52 2.54,22.75 2.35,23.98 2.14,25.06 1.93,26.14 1.69,27.30 1.46,28.46 1.19,29.76 0.93,31.06 0.74,32.21 0.55,33.35 0.34,35.04 0.12,36.72 0.09,37.92 0.05,39.12 -0.06,40.60 -0.19,42.09 -0.18,43.17 -0.17,44.26 -0.38,46.05 -0.58,47.84 -0.83,49.16 -1.07,50.47 -1.27,51.73 -1.47,52.99 -1.62,54.72 -1.77,56.45 -4.36,58.50 -6.94,60.56 -8.10,59.59 -9.25,58.63 -9.95,57.80 -10.64,56.97 -11.32,56.15 -12.01,55.34 -13.34,54.06 -14.67,52.78 -15.95,51.71 -17.23,50.64 -18.20,49.87 -19.18,49.10 -19.76,48.19 -20.33,47.27 -20.20,47.68 -20.06,48.10 -20.28,47.77 -20.50,47.44 -20.64,47.07 -20.77,46.70 -20.81,46.31 -20.86,45.91 -20.80,45.52 -20.75,45.13 -20.61,44.76 -20.46,44.39 -20.23,44.07 -20.00,43.75 -19.70,43.49 -19.40,43.23 -19.05,43.05 -18.70,42.87 -18.31,42.79 -17.93,42.70 -17.53,42.70 -17.14,42.71 -16.75,42.81 -16.37,42.91 -16.02,43.09 -15.68,43.28 -15.39,43.55 -15.09,43.82 -14.01,44.67 -12.92,45.53 -11.63,46.75 -10.35,47.98 -9.28,49.28 -8.20,50.59 -7.04,52.02 -5.88,53.45 -4.28,52.48 -2.69,51.51 -1.49,50.52 -0.29,49.53 0.61,48.92 1.51,48.31 4.34,47.20 7.17,46.09 7.69,46.15 8.21,46.21 8.68,46.43 9.15,46.65 9.53,47.01 9.91,47.37 10.15,47.83 10.40,48.30 10.48,48.81 10.56,49.33 10.48,49.85 10.39,50.36 10.14,50.82 9.90,51.28 9.52,51.64 9.13,52.00 8.66,52.22 8.18,52.43 7.66,52.49 7.14,52.54 6.63,52.43 6.12,52.32 5.68,52.04 5.23,51.77 4.89,51.37 4.56,50.97 4.37,50.49 4.17,50.00 4.15,49.48 4.12,48.96 4.26,48.45 4.40,47.95 4.70,47.52 4.99,47.09 5.41,46.77 5.83,46.46 6.32,46.29 6.82,46.13 7.34,46.13 7.87,46.13 8.36,46.30 8.85,46.47 9.27,46.79 9.68,47.11 9.98,47.54 10.27,47.97 10.41,48.48 10.54,48.98 10.51,49.50 10.48,50.02 10.29,50.51 10.09,50.99 9.75,51.39 9.41,51.79 8.96,52.06 8.52,52.32 8.00,52.43 7.49,52.54 7.49,52.54 7.49,52.54 5.63,53.56 3.76,54.57 2.58,55.50 1.40,56.44 0.18,57.55 -1.03,58.67 -2.13,59.41 -3.23,60.14 -4.34,60.47 -5.46,60.80 -6.61,60.64 -7.76,60.49 -8.87,59.64 -9.97,58.79 -11.12,57.42 -12.26,56.06 -13.33,54.80 -14.39,53.53 -15.22,52.59 -16.04,51.64 -17.25,50.58 -18.47,49.52 -19.27,48.81 -20.06,48.10 -20.28,47.77 -20.50,47.44 -20.64,47.07 -20.77,46.70 -20.81,46.31 -20.86,45.91 -20.80,45.52 -20.75,45.13 -20.61,44.76 -20.46,44.39 -20.23,44.07 -20.00,43.75 -19.70,43.49 -19.40,43.23 -19.05,43.05 -18.70,42.87 -18.31,42.79 -17.93,42.70 -17.53,42.70 -17.14,42.71 -16.76,42.81 -16.37,42.91 -16.03,43.09 -15.68,43.28 -15.39,43.55 -15.09,43.82 -14.97,44.06 -14.86,44.30 -13.99,45.03 -13.13,45.76 -11.77,46.93 -10.41,48.11 -9.62,48.83 -8.82,49.55 -7.99,50.35 -7.17,51.16 -6.45,51.97 -5.74,52.77 -4.68,54.07 -3.63,55.37 -5.89,55.98 -8.16,56.59 -7.97,55.50 -7.78,54.41 -7.69,53.32 -7.61,52.23 -7.48,50.88 -7.36,49.53 -7.22,48.24 -7.07,46.95 -6.81,45.28 -6.55,43.61 -6.46,42.53 -6.37,41.45 -6.18,40.07 -6.00,38.69 -5.84,37.25 -5.68,35.81 -5.37,34.13 -5.06,32.44 -4.86,31.23 -4.67,30.02 -4.45,28.68 -4.22,27.33 -3.99,26.14 -3.77,24.96 -3.40,23.04 -3.03,21.13 -2.94,19.11 -2.85,17.08 -2.78,15.59 -2.71,14.09 -2.63,12.66 -2.54,11.23 -2.52,9.98 -2.50,8.74 -2.51,7.24 -2.53,5.74 -2.54,4.28 -2.55,2.82 -2.56,1.41 -2.57,0 -2.53,-0.30 -2.49,-0.61 -2.38,-0.90 -2.27,-1.19 -2.10,-1.45 -1.92,-1.70 -1.69,-1.91 -1.46,-2.11 -1.18,-2.26 -0.91,-2.40 -0.61,-2.47 -0.30,-2.55 0.00,-2.55 0.31,-2.55 0.61,-2.47 0.91,-2.40 1.18,-2.26 1.46,-2.11 1.69,-1.91 1.92,-1.70 2.10,-1.45 2.27,-1.19 2.38,-0.90 2.49,-0.61 2.53,-0.30 2.57,0.00 2.57,0.00 L 2.57,0 Z"></path></g><g transform="translate(274.47630887237744 321.72714259369843) rotate(0 2.810489772252822 -27.149652802145937)" stroke="none"><path fill="#000000" d="M -2.04,0 Q -2.04,0 -1.96,-2.08 -1.87,-4.16 -1.79,-7.03 -1.72,-9.91 -1.66,-12.71 -1.61,-15.50 -1.57,-17.63 -1.53,-19.75 -1.63,-21.06 -1.73,-22.37 -1.91,-24.25 -2.09,-26.12 -2.12,-27.64 -2.14,-29.16 -2.08,-31.09 -2.02,-33.02 -1.98,-34.93 -1.94,-36.83 -1.98,-38.37 -2.02,-39.91 -2.16,-41.57 -2.30,-43.22 -2.40,-44.32 -2.51,-45.42 -2.75,-46.79 -2.99,-48.17 -3.26,-49.68 -3.54,-51.18 -4.72,-49.62 -5.91,-48.06 -6.77,-47.19 -7.64,-46.32 -8.59,-45.35 -9.53,-44.38 -10.31,-43.48 -11.08,-42.57 -11.90,-41.47 -12.71,-40.36 -12.81,-40.11 -12.91,-39.87 -13.18,-39.59 -13.44,-39.31 -13.76,-39.11 -14.09,-38.90 -14.45,-38.78 -14.81,-38.66 -15.19,-38.63 -15.57,-38.59 -15.95,-38.66 -16.33,-38.72 -16.68,-38.86 -17.03,-39.01 -17.34,-39.24 -17.64,-39.47 -17.89,-39.77 -18.13,-40.06 -18.29,-40.41 -18.46,-40.75 -18.54,-41.13 -18.61,-41.50 -18.60,-41.88 -18.58,-42.26 -18.48,-42.63 -18.37,-43.00 -18.18,-43.33 -17.99,-43.66 -17.09,-44.44 -16.19,-45.21 -14.54,-46.52 -12.89,-47.83 -11.28,-49.01 -9.68,-50.18 -8.56,-50.89 -7.44,-51.60 -6.41,-52.37 -5.38,-53.14 -4.44,-53.71 -3.50,-54.29 -2.37,-54.58 -1.24,-54.86 0.74,-54.43 2.72,-54.00 3.93,-53.43 5.14,-52.85 6.49,-52.10 7.84,-51.35 9.11,-50.58 10.38,-49.81 11.42,-49.16 12.45,-48.51 13.70,-47.66 14.96,-46.81 16.52,-45.93 18.08,-45.06 18.96,-44.40 19.84,-43.74 21.51,-42.33 23.18,-40.92 23.55,-40.56 23.92,-40.20 24.16,-39.73 24.40,-39.27 24.48,-38.76 24.56,-38.25 24.47,-37.73 24.39,-37.22 24.14,-36.76 23.89,-36.31 23.51,-35.95 23.13,-35.60 22.66,-35.38 22.18,-35.17 21.67,-35.12 21.15,-35.07 20.64,-35.18 20.14,-35.30 19.69,-35.57 19.25,-35.84 18.92,-36.24 18.58,-36.64 18.39,-37.12 18.21,-37.61 18.18,-38.13 18.16,-38.65 18.30,-39.15 18.45,-39.65 18.74,-40.08 19.04,-40.50 19.45,-40.81 19.87,-41.13 20.36,-41.29 20.86,-41.45 21.38,-41.44 21.90,-41.44 22.39,-41.27 22.88,-41.10 23.29,-40.78 23.70,-40.46 23.99,-40.03 24.28,-39.60 24.41,-39.10 24.55,-38.59 24.51,-38.07 24.48,-37.56 24.29,-37.07 24.09,-36.59 23.75,-36.20 23.41,-35.81 22.96,-35.54 22.51,-35.28 22.00,-35.17 21.50,-35.06 20.98,-35.12 20.46,-35.18 19.99,-35.41 19.52,-35.63 19.52,-35.63 19.52,-35.63 17.75,-37.13 15.98,-38.63 14.69,-39.52 13.40,-40.41 12.34,-41.08 11.28,-41.75 10.26,-42.53 9.25,-43.30 8.32,-43.85 7.40,-44.41 6.20,-45.00 5.00,-45.60 3.71,-46.15 2.43,-46.70 0.80,-47.43 -0.82,-48.16 -1.88,-47.46 -2.95,-46.77 -3.99,-46.17 -5.03,-45.56 -6.23,-44.83 -7.42,-44.09 -9.00,-42.84 -10.58,-41.58 -11.75,-40.73 -12.91,-39.87 -13.18,-39.59 -13.44,-39.31 -13.76,-39.11 -14.09,-38.90 -14.45,-38.78 -14.81,-38.66 -15.19,-38.63 -15.57,-38.59 -15.95,-38.66 -16.33,-38.72 -16.68,-38.86 -17.03,-39.01 -17.34,-39.24 -17.64,-39.47 -17.89,-39.77 -18.13,-40.06 -18.29,-40.41 -18.46,-40.75 -18.54,-41.13 -18.61,-41.50 -18.60,-41.88 -18.58,-42.26 -18.48,-42.63 -18.37,-43.00 -18.18,-43.33 -17.99,-43.66 -17.88,-43.88 -17.76,-44.10 -16.82,-45.28 -15.87,-46.45 -15.05,-47.52 -14.23,-48.59 -13.33,-49.67 -12.43,-50.76 -10.98,-52.46 -9.52,-54.15 -8.35,-55.17 -7.18,-56.19 -5.36,-56.81 -3.55,-57.43 -2.39,-57.38 -1.23,-57.32 0.03,-56.47 1.30,-55.61 1.71,-54.53 2.11,-53.44 2.31,-52.18 2.51,-50.91 2.53,-49.65 2.56,-48.39 2.53,-46.90 2.51,-45.42 2.40,-44.32 2.30,-43.22 2.16,-41.57 2.02,-39.91 1.98,-38.37 1.94,-36.83 1.98,-34.93 2.02,-33.02 2.08,-31.09 2.14,-29.16 2.12,-27.64 2.09,-26.12 1.91,-24.25 1.73,-22.37 1.63,-21.06 1.53,-19.75 1.57,-17.63 1.61,-15.50 1.66,-12.71 1.72,-9.91 1.79,-7.03 1.87,-4.16 1.96,-2.08 2.04,0 2.01,0.24 1.98,0.48 1.90,0.72 1.81,0.95 1.67,1.15 1.53,1.35 1.34,1.52 1.16,1.68 0.94,1.79 0.72,1.91 0.48,1.97 0.24,2.03 -0.00,2.03 -0.24,2.03 -0.48,1.97 -0.72,1.91 -0.94,1.79 -1.16,1.68 -1.34,1.52 -1.53,1.35 -1.67,1.15 -1.81,0.95 -1.90,0.72 -1.98,0.48 -2.01,0.24 -2.04,-0.00 -2.04,-0.00 L -2.04,0 Z"></path></g><g transform="translate(699.814609060863 257.5525251223466) rotate(0 67.20747372594724 -76.80728092219643)" stroke="none"><path fill="#000000" d="M -0.54,-1.46 Q -0.54,-1.46 1.55,-2.21 3.65,-2.96 8.39,-5.04 13.13,-7.12 18.86,-10.00 24.59,-12.88 31.14,-16.50 37.69,-20.12 44.43,-24.04 51.18,-27.95 56.85,-31.41 62.53,-34.86 67.62,-38.04 72.71,-41.21 77.38,-44.20 82.04,-47.19 86.10,-50.00 90.16,-52.80 93.80,-55.57 97.44,-58.33 100.56,-60.86 103.69,-63.39 106.20,-65.49 108.72,-67.60 110.56,-69.29 112.40,-70.97 113.62,-72.39 114.84,-73.81 115.69,-75.06 116.55,-76.32 117.24,-77.40 117.92,-78.49 118.48,-79.47 119.04,-80.45 119.58,-81.48 120.12,-82.50 120.77,-83.62 121.42,-84.73 121.98,-85.73 122.55,-86.72 123.06,-87.70 123.56,-88.67 124.20,-89.80 124.83,-90.93 125.56,-92.22 126.30,-93.51 127.03,-94.90 127.77,-96.29 128.39,-97.64 129.02,-98.99 129.54,-100.21 130.06,-101.43 130.45,-102.95 130.83,-104.48 130.96,-105.61 131.09,-106.75 131.24,-107.96 131.40,-109.18 131.37,-110.89 131.35,-112.61 131.33,-114.26 131.31,-115.92 131.34,-117.18 131.37,-118.45 131.38,-119.61 131.40,-120.78 131.43,-122.11 131.46,-123.43 131.53,-125.02 131.60,-126.60 131.68,-128.31 131.76,-130.02 131.74,-131.55 131.71,-133.08 131.62,-134.40 131.53,-135.71 131.41,-136.89 131.29,-138.07 131.11,-139.12 130.93,-140.18 130.55,-141.88 130.18,-143.58 129.98,-144.85 129.78,-146.12 129.29,-147.54 128.81,-148.97 128.75,-149.79 128.70,-150.61 128.25,-150.86 127.79,-151.11 127.45,-151.48 127.10,-151.86 126.89,-152.33 126.68,-152.80 126.63,-153.31 126.58,-153.82 126.69,-154.32 126.81,-154.82 127.08,-155.26 127.35,-155.69 127.75,-156.02 128.14,-156.35 128.62,-156.53 129.10,-156.72 129.61,-156.74 130.13,-156.76 130.62,-156.62 131.11,-156.47 131.53,-156.18 131.96,-155.89 132.26,-155.48 132.57,-155.06 132.73,-154.57 132.88,-154.09 132.88,-153.57 132.87,-153.06 132.70,-152.57 132.53,-152.09 132.22,-151.68 131.90,-151.28 131.47,-151.00 131.04,-150.71 130.55,-150.58 130.05,-150.45 129.54,-150.48 129.03,-150.52 128.55,-150.71 128.08,-150.91 127.69,-151.25 127.30,-151.58 127.04,-152.03 126.78,-152.47 126.68,-152.97 126.57,-153.48 126.64,-153.99 126.70,-154.50 126.92,-154.96 127.14,-155.42 127.50,-155.79 127.85,-156.16 128.31,-156.39 128.77,-156.63 129.28,-156.71 129.78,-156.78 130.29,-156.69 130.79,-156.61 130.79,-156.61 130.79,-156.61 132.85,-153.36 134.90,-150.11 135.20,-148.89 135.50,-147.67 135.58,-146.12 135.66,-144.56 135.92,-142.76 136.18,-140.96 136.34,-139.74 136.50,-138.51 136.58,-137.28 136.67,-136.06 136.76,-134.67 136.85,-133.29 136.96,-131.66 137.06,-130.02 137.14,-128.31 137.22,-126.60 137.29,-125.02 137.36,-123.43 137.39,-122.10 137.42,-120.78 137.44,-119.61 137.45,-118.44 137.48,-117.18 137.51,-115.91 137.48,-114.22 137.44,-112.54 137.37,-111.10 137.29,-109.67 137.05,-108.29 136.81,-106.92 136.53,-105.79 136.24,-104.65 135.80,-103.05 135.35,-101.46 134.91,-100.46 134.47,-99.46 133.90,-98.23 133.33,-97.01 132.67,-95.57 132.02,-94.13 131.28,-92.63 130.54,-91.12 129.80,-89.79 129.06,-88.45 128.40,-87.36 127.73,-86.27 127.10,-85.26 126.46,-84.25 125.80,-83.30 125.13,-82.35 124.42,-81.34 123.70,-80.32 122.99,-79.29 122.28,-78.26 121.53,-77.31 120.78,-76.37 119.91,-75.37 119.05,-74.37 117.98,-73.15 116.92,-71.94 115.55,-70.48 114.18,-69.03 112.29,-67.31 110.41,-65.58 107.88,-63.46 105.35,-61.33 102.20,-58.78 99.04,-56.22 95.36,-53.42 91.67,-50.62 87.58,-47.78 83.48,-44.95 78.81,-41.95 74.13,-38.94 69.03,-35.75 63.93,-32.55 58.24,-29.08 52.55,-25.60 45.79,-21.65 39.03,-17.70 32.44,-14.03 25.86,-10.36 20.08,-7.42 14.30,-4.48 9.50,-2.32 4.70,-0.16 2.62,0.65 0.54,1.46 0.36,1.50 0.18,1.55 -0.00,1.55 -0.19,1.54 -0.37,1.50 -0.56,1.45 -0.72,1.36 -0.89,1.28 -1.03,1.15 -1.17,1.03 -1.28,0.87 -1.38,0.71 -1.45,0.54 -1.51,0.36 -1.54,0.17 -1.56,-0.00 -1.53,-0.19 -1.51,-0.38 -1.44,-0.55 -1.37,-0.73 -1.27,-0.88 -1.16,-1.04 -1.02,-1.16 -0.88,-1.28 -0.71,-1.37 -0.54,-1.46 -0.54,-1.46 L -0.54,-1.46 Z"></path></g><g transform="translate(515.0197610803633 297.03547763989735) rotate(0 -83.86787140931472 35.96009409941939)" stroke="none"><path fill="#000000" d="M 1.36,0.75 Q 1.36,0.75 0.02,3.12 -1.32,5.49 -3.72,8.62 -6.12,11.76 -9.02,15.08 -11.91,18.39 -15.28,21.86 -18.64,25.32 -22.29,28.78 -25.93,32.25 -29.60,35.31 -33.26,38.37 -36.85,41.05 -40.44,43.73 -45.20,46.68 -49.97,49.63 -53.52,51.50 -57.08,53.38 -60.02,54.61 -62.96,55.84 -65.31,56.70 -67.65,57.55 -69.46,58.25 -71.27,58.95 -72.73,59.55 -74.19,60.15 -75.47,60.60 -76.75,61.06 -77.97,61.42 -79.19,61.78 -80.45,62.05 -81.72,62.32 -82.88,62.54 -84.03,62.75 -85.16,62.93 -86.29,63.11 -87.55,63.23 -88.81,63.34 -90.11,63.40 -91.40,63.46 -92.81,63.47 -94.22,63.49 -96.62,63.51 -99.02,63.53 -100.99,63.74 -102.95,63.95 -105.07,64.18 -107.20,64.40 -109.44,64.63 -111.68,64.86 -113.85,65.09 -116.01,65.32 -118.82,65.58 -121.63,65.83 -123.54,66.10 -125.45,66.36 -126.87,66.66 -128.29,66.96 -129.33,67.21 -130.38,67.46 -131.61,67.85 -132.85,68.24 -134.41,68.89 -135.98,69.55 -137.25,69.90 -138.52,70.25 -139.85,70.38 -141.17,70.50 -142.70,70.60 -144.23,70.70 -145.56,70.75 -146.89,70.81 -148.03,71.02 -149.17,71.22 -150.95,71.57 -152.73,71.91 -154.24,72.32 -155.76,72.73 -157.04,73.20 -158.32,73.67 -159.52,74.09 -160.72,74.52 -161.82,74.84 -162.91,75.16 -165.32,75.23 -167.73,75.30 -168.27,75.21 -168.81,75.12 -169.30,74.87 -169.78,74.61 -170.16,74.21 -170.53,73.81 -170.76,73.32 -170.99,72.82 -171.05,72.28 -171.11,71.73 -170.99,71.20 -170.88,70.66 -170.59,70.19 -170.31,69.72 -169.89,69.37 -169.48,69.01 -168.97,68.81 -168.46,68.61 -167.91,68.58 -167.36,68.55 -166.84,68.70 -166.31,68.84 -165.86,69.15 -165.40,69.46 -165.07,69.89 -164.74,70.33 -164.56,70.85 -164.39,71.37 -164.39,71.92 -164.39,72.46 -164.56,72.98 -164.74,73.50 -165.07,73.94 -165.40,74.37 -165.86,74.68 -166.31,74.99 -166.84,75.13 -167.37,75.28 -167.91,75.25 -168.46,75.22 -168.97,75.02 -169.48,74.82 -169.89,74.46 -170.31,74.11 -170.59,73.64 -170.88,73.17 -170.99,72.63 -171.11,72.10 -171.05,71.55 -170.99,71.01 -170.76,70.51 -170.53,70.01 -170.16,69.62 -169.78,69.22 -169.29,68.96 -168.81,68.71 -168.27,68.62 -167.73,68.53 -167.73,68.53 -167.73,68.53 -165.69,68.57 -163.65,68.60 -162.50,68.22 -161.35,67.84 -160.28,67.55 -159.21,67.25 -157.61,66.74 -156.01,66.23 -154.18,65.86 -152.35,65.49 -150.52,65.16 -148.69,64.84 -146.95,64.78 -145.21,64.73 -143.81,64.81 -142.41,64.89 -141.17,64.95 -139.93,65.01 -138.76,64.96 -137.59,64.92 -135.71,64.42 -133.83,63.93 -132.38,63.81 -130.93,63.68 -129.86,63.63 -128.79,63.57 -127.31,63.44 -125.84,63.32 -123.89,63.08 -121.94,62.85 -119.18,62.53 -116.41,62.20 -114.26,61.88 -112.11,61.55 -109.92,61.20 -107.73,60.84 -105.64,60.44 -103.56,60.04 -101.44,59.61 -99.32,59.19 -96.79,58.87 -94.27,58.55 -92.89,58.54 -91.51,58.53 -90.30,58.54 -89.08,58.54 -87.95,58.51 -86.81,58.49 -85.70,58.42 -84.60,58.35 -83.49,58.27 -82.37,58.20 -81.20,58.08 -80.03,57.97 -78.86,57.80 -77.70,57.63 -76.46,57.39 -75.22,57.15 -73.72,56.73 -72.23,56.31 -70.39,55.69 -68.56,55.07 -66.27,54.24 -63.98,53.40 -61.15,52.22 -58.32,51.03 -54.84,49.20 -51.37,47.36 -46.71,44.47 -42.04,41.58 -38.52,38.94 -34.99,36.31 -31.40,33.29 -27.81,30.27 -24.22,26.83 -20.63,23.40 -17.34,19.97 -14.04,16.55 -11.23,13.28 -8.42,10.01 -6.18,7.03 -3.93,4.04 -2.65,1.64 -1.36,-0.75 -1.25,-0.90 -1.14,-1.05 -1.00,-1.18 -0.86,-1.30 -0.69,-1.38 -0.52,-1.47 -0.34,-1.51 -0.15,-1.55 0.03,-1.55 0.21,-1.54 0.40,-1.49 0.58,-1.44 0.74,-1.35 0.91,-1.26 1.05,-1.13 1.19,-1.01 1.29,-0.85 1.39,-0.69 1.46,-0.52 1.52,-0.34 1.54,-0.15 1.56,0.03 1.53,0.21 1.50,0.40 1.43,0.57 1.36,0.75 1.36,0.75 L 1.36,0.75 Z"></path></g><g transform="translate(309.42924432815084 103.90556575185911) rotate(0 107 23)"><text x="0" y="32" font-family="Virgil, Segoe UI Emoji" font-size="36px" fill="#000000" text-anchor="start" style="white-space: pre;" direction="ltr">html results</text></g><g transform="translate(35.568382039581024 103.53123953638112) rotate(0 61.5 23)"><text x="0" y="32" font-family="Virgil, Segoe UI Emoji" font-size="36px" fill="#000000" text-anchor="start" style="white-space: pre;" direction="ltr">queries</text></g><g transform="translate(82.88697550444851 265.4758021472042) rotate(0 46.5 23)"><text x="0" y="32" font-family="Virgil, Segoe UI Emoji" font-size="36px" fill="#000000" text-anchor="start" style="white-space: pre;" direction="ltr">query</text></g><g transform="translate(316.43131258127335 275.82530617120074) rotate(0 63 23)"><text x="0" y="32" font-family="Virgil, Segoe UI Emoji" font-size="36px" fill="#000000" text-anchor="start" style="white-space: pre;" direction="ltr">results</text></g><g transform="translate(481.64480113520995 333.6500271650786) rotate(0 76 23)"><text x="0" y="32" font-family="Virgil, Segoe UI Emoji" font-size="36px" fill="#000000" text-anchor="start" style="white-space: pre;" direction="ltr">keywords</text></g><g transform="translate(838.0338978729876 173.15692399839725) rotate(0 89 23)"><text x="0" y="32" font-family="Virgil, Segoe UI Emoji" font-size="36px" fill="#000000" text-anchor="start" style="white-space: pre;" direction="ltr">web pages</text></g><g stroke-linecap="round" transform="translate(10.000000000000057 185.05049986970158) rotate(0 379.7697376021855 115.52692344003043)"><path d="M444.78 2.43 C473.26 2.22, 502.7 6.33, 529.73 9.73 C556.76 13.13, 583.44 17.47, 606.96 22.83 C630.48 28.19, 652.06 35.12, 670.84 41.92 C689.63 48.72, 706.55 55.98, 719.68 63.63 C732.81 71.29, 742.97 79.21, 749.64 87.85 C756.31 96.49, 759.73 106.59, 759.71 115.47 C759.69 124.36, 756.12 132.55, 749.55 141.18 C742.97 149.82, 733.49 159.07, 720.29 167.28 C707.08 175.49, 689.37 183.74, 670.31 190.46 C651.25 197.19, 629.15 202.59, 605.93 207.62 C582.72 212.64, 557.74 216.87, 531.03 220.6 C504.32 224.34, 474.56 228.46, 445.65 230.03 C416.74 231.6, 386.71 230.7, 357.58 230.01 C328.44 229.32, 298.89 228.39, 270.84 225.89 C242.78 223.39, 214.57 219.27, 189.26 215.01 C163.95 210.76, 140.19 206.32, 118.98 200.37 C97.78 194.42, 78.05 186.84, 62.02 179.33 C45.98 171.81, 32.83 163.78, 22.79 155.28 C12.76 146.78, 5.23 137.05, 1.82 128.32 C-1.6 119.59, -1.05 111.54, 2.29 102.88 C5.64 94.23, 12.02 84.72, 21.89 76.38 C31.75 68.05, 45.29 60.33, 61.48 52.87 C77.66 45.42, 97.52 37.98, 119 31.67 C140.48 25.35, 164.97 19.49, 190.37 14.99 C215.76 10.49, 243.65 7.21, 271.38 4.67 C299.11 2.12, 322.82 0, 356.74 -0.25 C390.66 -0.51, 451.18 1.62, 474.89 3.12 C498.61 4.62, 500.64 6.86, 499.02 8.73 M311.19 2.54 C337.36 -0.89, 371.89 -1.48, 401.34 -0.93 C430.79 -0.38, 460.25 3.37, 487.89 5.85 C515.54 8.34, 542.03 9.52, 567.2 13.97 C592.37 18.43, 617.31 26.14, 638.92 32.57 C660.52 39, 680.63 45.51, 696.85 52.55 C713.06 59.59, 726.28 66.74, 736.21 74.81 C746.14 82.88, 753.07 92, 756.4 100.95 C759.73 109.91, 759.52 119.73, 756.17 128.55 C752.81 137.37, 746.04 145.44, 736.27 153.87 C726.5 162.29, 713.51 171.39, 697.53 179.12 C681.55 186.85, 661.33 194.41, 640.38 200.24 C619.43 206.07, 596.91 209.6, 571.81 214.1 C546.72 218.6, 518.07 224.57, 489.8 227.23 C461.52 229.89, 430.97 229.67, 402.16 230.08 C373.34 230.48, 345.41 231.21, 316.9 229.67 C288.38 228.13, 258.21 224.13, 231.06 220.83 C203.92 217.52, 177.48 214.7, 154.02 209.81 C130.57 204.93, 108.99 198.64, 90.33 191.5 C71.67 184.37, 55.5 175.29, 42.07 167 C28.63 158.7, 16.63 150.22, 9.73 141.74 C2.83 133.27, 0.78 124.83, 0.68 116.16 C0.58 107.48, 2.62 98.48, 9.12 89.71 C15.62 80.94, 26.61 71.57, 39.65 63.53 C52.7 55.49, 68.56 48.1, 87.38 41.48 C106.19 34.85, 129.31 28.84, 152.55 23.77 C175.8 18.71, 200.43 14.85, 226.84 11.08 C253.25 7.31, 296.37 2.52, 311.01 1.15 C325.66 -0.22, 313.49 0.94, 314.68 2.86" stroke="#5f3dc4" stroke-width="1" fill="none"></path></g><g transform="translate(574.8724125335028 420.97715682930226) rotate(0 44.5 23)"><text x="0" y="32" font-family="Virgil, Segoe UI Emoji" font-size="36px" fill="#5f3dc4" text-anchor="start" style="white-space: pre;" direction="ltr">cloud</text></g><g stroke-linecap="round" transform="translate(70.24797364549107 170.01802867452454) rotate(0 187.80652818980914 160.8799981573375)"><path d="M-0.61 1.12 C99.63 2.25, 198.02 1.86, 376.67 0.31 M-0.37 -0.38 C146.01 1.33, 291.18 1.41, 375.62 -0.25 M376.17 -0.88 C376.65 87.43, 374.68 178.06, 374.44 321.07 M376.05 -0.06 C377.2 83.95, 377.28 168.35, 375.72 321.22 M375.82 321.05 C235.97 322.71, 95.41 323.96, -0.84 322.01 M375.43 321.96 C289.32 323.35, 201.85 323.17, 0.49 321.81 M-0.12 320.68 C1.14 194.21, 1.22 65.59, 1.28 0.9 M0.18 321.26 C-1.49 245.11, -2.01 169.42, -0.29 -0.33" stroke="#c92a2a" stroke-width="1" fill="none"></path></g><g transform="translate(105.19406650159715 433.9582166442544) rotate(0 64.5 23)"><text x="0" y="32" font-family="Virgil, Segoe UI Emoji" font-size="36px" fill="#c92a2a" text-anchor="start" style="white-space: pre;" direction="ltr">servers</text></g></svg>